%TF.GenerationSoftware,KiCad,Pcbnew,8.0.7*%
%TF.CreationDate,2025-01-03T20:06:20-08:00*%
%TF.ProjectId,Miniscope-v4-Wire-Free,4d696e69-7363-46f7-9065-2d76342d5769,rev?*%
%TF.SameCoordinates,Original*%
%TF.FileFunction,Copper,L6,Bot*%
%TF.FilePolarity,Positive*%
%FSLAX46Y46*%
G04 Gerber Fmt 4.6, Leading zero omitted, Abs format (unit mm)*
G04 Created by KiCad (PCBNEW 8.0.7) date 2025-01-03 20:06:20*
%MOMM*%
%LPD*%
G01*
G04 APERTURE LIST*
G04 Aperture macros list*
%AMRoundRect*
0 Rectangle with rounded corners*
0 $1 Rounding radius*
0 $2 $3 $4 $5 $6 $7 $8 $9 X,Y pos of 4 corners*
0 Add a 4 corners polygon primitive as box body*
4,1,4,$2,$3,$4,$5,$6,$7,$8,$9,$2,$3,0*
0 Add four circle primitives for the rounded corners*
1,1,$1+$1,$2,$3*
1,1,$1+$1,$4,$5*
1,1,$1+$1,$6,$7*
1,1,$1+$1,$8,$9*
0 Add four rect primitives between the rounded corners*
20,1,$1+$1,$2,$3,$4,$5,0*
20,1,$1+$1,$4,$5,$6,$7,0*
20,1,$1+$1,$6,$7,$8,$9,0*
20,1,$1+$1,$8,$9,$2,$3,0*%
%AMRotRect*
0 Rectangle, with rotation*
0 The origin of the aperture is its center*
0 $1 length*
0 $2 width*
0 $3 Rotation angle, in degrees counterclockwise*
0 Add horizontal line*
21,1,$1,$2,0,0,$3*%
%AMFreePoly0*
4,1,7,0.110000,0.125000,0.110000,-0.125000,-0.110000,-0.125000,-0.140000,-0.125000,-0.140000,0.095000,0.110000,0.345000,0.110000,0.125000,0.110000,0.125000,$1*%
%AMFreePoly1*
4,1,6,0.140000,0.095000,0.140000,-0.125000,-0.110000,-0.125000,-0.110000,0.275000,-0.040000,0.275000,0.140000,0.095000,0.140000,0.095000,$1*%
%AMFreePoly2*
4,1,8,0.110000,0.125000,0.110000,-0.125000,-0.110000,-0.125000,-0.140000,-0.125000,-0.140000,0.095000,0.040000,0.275000,0.110000,0.275000,0.110000,0.125000,0.110000,0.125000,$1*%
G04 Aperture macros list end*
%TA.AperFunction,SMDPad,CuDef*%
%ADD10RoundRect,0.077500X-0.092500X0.077500X-0.092500X-0.077500X0.092500X-0.077500X0.092500X0.077500X0*%
%TD*%
%TA.AperFunction,SMDPad,CuDef*%
%ADD11C,0.228600*%
%TD*%
%TA.AperFunction,ComponentPad*%
%ADD12C,1.000000*%
%TD*%
%TA.AperFunction,SMDPad,CuDef*%
%ADD13R,1.500000X0.450000*%
%TD*%
%TA.AperFunction,SMDPad,CuDef*%
%ADD14RoundRect,0.145000X0.145000X0.170000X-0.145000X0.170000X-0.145000X-0.170000X0.145000X-0.170000X0*%
%TD*%
%TA.AperFunction,SMDPad,CuDef*%
%ADD15RoundRect,0.145000X-0.145000X-0.170000X0.145000X-0.170000X0.145000X0.170000X-0.145000X0.170000X0*%
%TD*%
%TA.AperFunction,SMDPad,CuDef*%
%ADD16RoundRect,0.077500X0.092500X-0.077500X0.092500X0.077500X-0.092500X0.077500X-0.092500X-0.077500X0*%
%TD*%
%TA.AperFunction,SMDPad,CuDef*%
%ADD17RoundRect,0.202500X-0.202500X-0.232500X0.202500X-0.232500X0.202500X0.232500X-0.202500X0.232500X0*%
%TD*%
%TA.AperFunction,SMDPad,CuDef*%
%ADD18RoundRect,0.077500X-0.077500X-0.092500X0.077500X-0.092500X0.077500X0.092500X-0.077500X0.092500X0*%
%TD*%
%TA.AperFunction,SMDPad,CuDef*%
%ADD19RoundRect,0.145000X0.170000X-0.145000X0.170000X0.145000X-0.170000X0.145000X-0.170000X-0.145000X0*%
%TD*%
%TA.AperFunction,SMDPad,CuDef*%
%ADD20RoundRect,0.222500X0.237500X-0.222500X0.237500X0.222500X-0.237500X0.222500X-0.237500X-0.222500X0*%
%TD*%
%TA.AperFunction,SMDPad,CuDef*%
%ADD21C,0.250000*%
%TD*%
%TA.AperFunction,SMDPad,CuDef*%
%ADD22R,0.812800X1.320800*%
%TD*%
%TA.AperFunction,SMDPad,CuDef*%
%ADD23R,0.340000X0.990000*%
%TD*%
%TA.AperFunction,SMDPad,CuDef*%
%ADD24FreePoly0,90.000000*%
%TD*%
%TA.AperFunction,SMDPad,CuDef*%
%ADD25FreePoly1,90.000000*%
%TD*%
%TA.AperFunction,SMDPad,CuDef*%
%ADD26FreePoly2,270.000000*%
%TD*%
%TA.AperFunction,SMDPad,CuDef*%
%ADD27FreePoly1,270.000000*%
%TD*%
%TA.AperFunction,SMDPad,CuDef*%
%ADD28RotRect,0.480000X0.480000X225.000000*%
%TD*%
%TA.AperFunction,SMDPad,CuDef*%
%ADD29RoundRect,0.050000X-0.050000X0.375000X-0.050000X-0.375000X0.050000X-0.375000X0.050000X0.375000X0*%
%TD*%
%TA.AperFunction,SMDPad,CuDef*%
%ADD30RoundRect,0.050000X-0.375000X0.050000X-0.375000X-0.050000X0.375000X-0.050000X0.375000X0.050000X0*%
%TD*%
%TA.AperFunction,SMDPad,CuDef*%
%ADD31R,1.650000X1.650000*%
%TD*%
%TA.AperFunction,SMDPad,CuDef*%
%ADD32R,0.800000X1.000000*%
%TD*%
%TA.AperFunction,SMDPad,CuDef*%
%ADD33RoundRect,0.080000X-0.080000X0.270000X-0.080000X-0.270000X0.080000X-0.270000X0.080000X0.270000X0*%
%TD*%
%TA.AperFunction,SMDPad,CuDef*%
%ADD34R,3.149999X2.550000*%
%TD*%
%TA.AperFunction,SMDPad,CuDef*%
%ADD35RoundRect,0.077500X0.077500X0.092500X-0.077500X0.092500X-0.077500X-0.092500X0.077500X-0.092500X0*%
%TD*%
%TA.AperFunction,SMDPad,CuDef*%
%ADD36R,0.400000X0.250000*%
%TD*%
%TA.AperFunction,SMDPad,CuDef*%
%ADD37R,0.400000X0.700000*%
%TD*%
%TA.AperFunction,ViaPad*%
%ADD38C,0.304800*%
%TD*%
%TA.AperFunction,ViaPad*%
%ADD39C,0.254000*%
%TD*%
%TA.AperFunction,ViaPad*%
%ADD40C,0.400000*%
%TD*%
%TA.AperFunction,Conductor*%
%ADD41C,0.152400*%
%TD*%
%TA.AperFunction,Conductor*%
%ADD42C,0.101600*%
%TD*%
%TA.AperFunction,Conductor*%
%ADD43C,0.076200*%
%TD*%
%TA.AperFunction,Conductor*%
%ADD44C,0.203200*%
%TD*%
G04 APERTURE END LIST*
D10*
%TO.P,R21,1*%
%TO.N,Net-(U8-IBIAS_MASTER)*%
X82630000Y-68115000D03*
%TO.P,R21,2*%
%TO.N,GND*%
X82630000Y-68665000D03*
%TD*%
D11*
%TO.P,U6,A1,PA25*%
%TO.N,/PUSH_BUT_MCU*%
X90782200Y-63598200D03*
%TO.P,U6,A2,PB22*%
%TO.N,/IR_REC*%
X90782200Y-63198200D03*
%TO.P,U6,A3,PB23*%
%TO.N,/nCHRG*%
X90782200Y-62798200D03*
%TO.P,U6,A4,VDDCORE*%
%TO.N,/VDDCORE*%
X90782200Y-62398200D03*
%TO.P,U6,A5,VSW*%
%TO.N,Net-(U6B-VSW)*%
X90782200Y-61998200D03*
%TO.P,U6,A6,PB30*%
%TO.N,/LED_PWM*%
X90782200Y-61598200D03*
%TO.P,U6,A7,PB00*%
%TO.N,/I2C_BB_SDA*%
X90782200Y-61198200D03*
%TO.P,U6,A8,PB02*%
%TO.N,/I2C_BB_SCL*%
X90782200Y-60798200D03*
%TO.P,U6,B1,PA24*%
%TO.N,/3V3_EN*%
X90382200Y-63598200D03*
%TO.P,U6,B2,GND*%
%TO.N,GND*%
X90382200Y-63198200D03*
%TO.P,U6,B3,PA27*%
%TO.N,unconnected-(U6A-PA27-PadB3)*%
X90382200Y-62798200D03*
%TO.P,U6,B4,\u002ARESET*%
%TO.N,/nRESET*%
X90382200Y-62398200D03*
%TO.P,U6,B5,VDDIO*%
%TO.N,+1V8*%
X90382200Y-61998200D03*
%TO.P,U6,B6,PB31*%
%TO.N,unconnected-(U6A-PB31-PadB6)*%
X90382200Y-61598200D03*
%TO.P,U6,B7,PB01*%
%TO.N,/ENT*%
X90382200Y-61198200D03*
%TO.P,U6,B8,PA00*%
%TO.N,/XIN32*%
X90382200Y-60798200D03*
%TO.P,U6,C1,PA22*%
%TO.N,/PCC_DATA6*%
X89982200Y-63598200D03*
%TO.P,U6,C2,PA23*%
%TO.N,/PCC_DATA7*%
X89982200Y-63198200D03*
%TO.P,U6,C3,VDDIO*%
%TO.N,+1V8*%
X89982200Y-62798200D03*
%TO.P,U6,C4,GND*%
%TO.N,GND*%
X89982200Y-62398200D03*
%TO.P,U6,C5,PA30*%
%TO.N,/SWCLK*%
X89982200Y-61998200D03*
%TO.P,U6,C6,PB03*%
%TO.N,unconnected-(U6A-PB03-PadC6)*%
X89982200Y-61598200D03*
%TO.P,U6,C7,PA02*%
%TO.N,/ADC0*%
X89982200Y-61198200D03*
%TO.P,U6,C8,PA01*%
%TO.N,/XOUT32*%
X89982200Y-60798200D03*
%TO.P,U6,D1,PB17*%
%TO.N,/UART_RX*%
X89582200Y-63598200D03*
%TO.P,U6,D2,PA20*%
%TO.N,/PCC_DATA4*%
X89582200Y-63198200D03*
%TO.P,U6,D3,PA21*%
%TO.N,/PCC_DATA5*%
X89582200Y-62798200D03*
%TO.P,U6,D4,PB16*%
%TO.N,/UART_TX*%
X89582200Y-62398200D03*
%TO.P,U6,D5,PA31*%
%TO.N,/SWDIO*%
X89582200Y-61998200D03*
%TO.P,U6,D6,PA03*%
%TO.N,unconnected-(U6A-PA03-PadD6)*%
X89582200Y-61598200D03*
%TO.P,U6,D7,PB04*%
%TO.N,unconnected-(U6A-PB04-PadD7)*%
X89582200Y-61198200D03*
%TO.P,U6,D8,PB05*%
%TO.N,/SD_DET*%
X89582200Y-60798200D03*
%TO.P,U6,E1,PA18*%
%TO.N,/PCC_DATA2*%
X89182200Y-63598200D03*
%TO.P,U6,E2,PA19*%
%TO.N,/PCC_DATA3*%
X89182200Y-63198200D03*
%TO.P,U6,E3,VDDIO*%
%TO.N,+1V8*%
X89182200Y-62798200D03*
%TO.P,U6,E4,VDDIOB*%
X89182200Y-62398200D03*
%TO.P,U6,E5,GNDANA*%
%TO.N,GND*%
X89182200Y-61998200D03*
%TO.P,U6,E6,PB07*%
%TO.N,unconnected-(U6A-PB07-PadE6)*%
X89182200Y-61598200D03*
%TO.P,U6,E7,PB06*%
%TO.N,unconnected-(U6A-PB06-PadE7)*%
X89182200Y-61198200D03*
%TO.P,U6,E8,VDDANA*%
%TO.N,/VDDA*%
X89182200Y-60798200D03*
%TO.P,U6,F1,PA17*%
%TO.N,/PCC_DATA1*%
X88782200Y-63598200D03*
%TO.P,U6,F2,PA12*%
%TO.N,/PCC_DEN1*%
X88782200Y-63198200D03*
%TO.P,U6,F3,GND*%
%TO.N,GND*%
X88782200Y-62798200D03*
%TO.P,U6,F4,GND*%
X88782200Y-62398200D03*
%TO.P,U6,F5,PB08*%
%TO.N,unconnected-(U6A-PB08-PadF5)*%
X88782200Y-61998200D03*
%TO.P,U6,F6,PA05*%
%TO.N,/SPI1_SCK*%
X88782200Y-61598200D03*
%TO.P,U6,F7,PA04*%
%TO.N,/SPI1_MOSI*%
X88782200Y-61198200D03*
%TO.P,U6,F8,PB09*%
%TO.N,/LED_STATUS*%
X88782200Y-60798200D03*
%TO.P,U6,G1,PA16*%
%TO.N,/PCC_DATA0*%
X88382200Y-63598200D03*
%TO.P,U6,G2,PA13*%
%TO.N,/PCC_DEN2*%
X88382200Y-63198200D03*
%TO.P,U6,G3,PB14*%
%TO.N,/PCC_DEN1*%
X88382200Y-62798200D03*
%TO.P,U6,G4,PB11*%
%TO.N,/SDMMC1_CK*%
X88382200Y-62398200D03*
%TO.P,U6,G5,PA11*%
%TO.N,/SDMMC1_D2*%
X88382200Y-61998200D03*
%TO.P,U6,G6,PA09*%
%TO.N,/SDMMC1_D0*%
X88382200Y-61598200D03*
%TO.P,U6,G7,PA06*%
%TO.N,/SPI1_MISO*%
X88382200Y-61198200D03*
%TO.P,U6,G8,PA07*%
%TO.N,/MONITOR0*%
X88382200Y-60798200D03*
%TO.P,U6,H1,PA14*%
%TO.N,/PCC_CLK*%
X87982200Y-63598200D03*
%TO.P,U6,H2,PA15*%
%TO.N,/TRIGGER0*%
X87982200Y-63198200D03*
%TO.P,U6,H3,PB15*%
%TO.N,/CLK1_OUT*%
X87982200Y-62798200D03*
%TO.P,U6,H4,PB13*%
%TO.N,/RESET_N*%
X87982200Y-62398200D03*
%TO.P,U6,H5,PB12*%
%TO.N,/SPI1_NSS*%
X87982200Y-61998200D03*
%TO.P,U6,H6,PB15*%
%TO.N,/SDMMC1_D3*%
X87982200Y-61598200D03*
%TO.P,U6,H7,PA10*%
%TO.N,/SDMMC1_D1*%
X87982200Y-61198200D03*
%TO.P,U6,H8,PA08*%
%TO.N,/SDMMC1_CMD*%
X87982200Y-60798200D03*
%TD*%
D12*
%TO.P,J21,1,Pin_1*%
%TO.N,+3V3*%
X97000000Y-60055000D03*
%TD*%
%TO.P,J22,1,Pin_1*%
%TO.N,/I2C_BB_SCL*%
X97000000Y-61325000D03*
%TD*%
%TO.P,J24,1,Pin_1*%
%TO.N,/IR_REC*%
X97000000Y-63865000D03*
%TD*%
%TO.P,J25,1,Pin_1*%
%TO.N,/I_LED*%
X97000000Y-65135000D03*
%TD*%
%TO.P,J26,1,Pin_1*%
%TO.N,+1V8*%
X97000000Y-66405000D03*
%TD*%
%TO.P,J27,1,Pin_1*%
%TO.N,/nON*%
X97000000Y-67675000D03*
%TD*%
%TO.P,J23,1,Pin_1*%
%TO.N,/I2C_BB_SDA*%
X97000000Y-62595000D03*
%TD*%
%TO.P,J12,1,Pin_1*%
%TO.N,GND*%
X97000000Y-68945000D03*
%TD*%
D13*
%TO.P,D1,A,A*%
%TO.N,/I_LED*%
X103800000Y-64850000D03*
%TO.P,D1,C,C*%
%TO.N,GND*%
X103800000Y-64150000D03*
%TD*%
D14*
%TO.P,C6,1*%
%TO.N,+1V8*%
X88883400Y-65134000D03*
%TO.P,C6,2*%
%TO.N,GND*%
X87993400Y-65134000D03*
%TD*%
D15*
%TO.P,C7,1*%
%TO.N,+3V3*%
X89746000Y-65159400D03*
%TO.P,C7,2*%
%TO.N,GND*%
X90636000Y-65159400D03*
%TD*%
D16*
%TO.P,C9,1*%
%TO.N,+1V8*%
X83311500Y-59412500D03*
%TO.P,C9,2*%
%TO.N,GND*%
X83311500Y-58862500D03*
%TD*%
%TO.P,C10,1*%
%TO.N,+3V3*%
X83946500Y-59412500D03*
%TO.P,C10,2*%
%TO.N,GND*%
X83946500Y-58862500D03*
%TD*%
%TO.P,C11,1*%
%TO.N,+3V3*%
X80454100Y-62841500D03*
%TO.P,C11,2*%
%TO.N,GND*%
X80454100Y-62291500D03*
%TD*%
D17*
%TO.P,C16,1*%
%TO.N,Net-(U2-HV)*%
X98479000Y-66100200D03*
%TO.P,C16,2*%
%TO.N,GND*%
X99839000Y-66100200D03*
%TD*%
D16*
%TO.P,C27,1*%
%TO.N,+1V8*%
X82016200Y-69800400D03*
%TO.P,C27,2*%
%TO.N,GND*%
X82016200Y-69250400D03*
%TD*%
%TO.P,C36,1*%
%TO.N,/VREF_BOTPLATE*%
X80479500Y-64022600D03*
%TO.P,C36,2*%
%TO.N,GND*%
X80479500Y-63472600D03*
%TD*%
%TO.P,C38,1*%
%TO.N,+3V3*%
X83311500Y-60720600D03*
%TO.P,C38,2*%
%TO.N,GND*%
X83311500Y-60170600D03*
%TD*%
%TO.P,C41,1*%
%TO.N,+3V3*%
X83946500Y-60720600D03*
%TO.P,C41,2*%
%TO.N,GND*%
X83946500Y-60170600D03*
%TD*%
D18*
%TO.P,C48,1*%
%TO.N,/VDD_PIX*%
X85015600Y-68208400D03*
%TO.P,C48,2*%
%TO.N,GND*%
X85565600Y-68208400D03*
%TD*%
D19*
%TO.P,C50,1*%
%TO.N,+3V3*%
X84759300Y-60585800D03*
%TO.P,C50,2*%
%TO.N,GND*%
X84759300Y-59695800D03*
%TD*%
%TO.P,C52,1*%
%TO.N,+1V8*%
X85699100Y-60560400D03*
%TO.P,C52,2*%
%TO.N,GND*%
X85699100Y-59670400D03*
%TD*%
D20*
%TO.P,L4,1*%
%TO.N,Net-(U9--)*%
X80162000Y-66401200D03*
%TO.P,L4,2*%
%TO.N,/VREF_BOTPLATE*%
X80162000Y-65071200D03*
%TD*%
D21*
%TO.P,U8,A1,VDD_PIX*%
%TO.N,/VDD_PIX*%
X86046000Y-66989600D03*
%TO.P,U8,A2,VDD_18*%
%TO.N,+1V8*%
X86046000Y-66489600D03*
%TO.P,U8,A3,TR2*%
%TO.N,GND*%
X86046000Y-65989600D03*
%TO.P,U8,A4,SS_N*%
%TO.N,/SPI1_NSS*%
X86046000Y-65489600D03*
%TO.P,U8,A5,FRAME_VALID*%
%TO.N,/PCC_DEN1*%
X86046000Y-64989600D03*
%TO.P,U8,A6,VSS_COLPC*%
%TO.N,GND*%
X86046000Y-64489600D03*
%TO.P,U8,A7,DOUT7*%
%TO.N,/PCC_DATA5*%
X86046000Y-63989600D03*
%TO.P,U8,A8,CLK_OUT*%
%TO.N,/PCC_CLK*%
X86046000Y-63489600D03*
%TO.P,U8,A9,DOUT2*%
%TO.N,/PCC_DATA0*%
X86046000Y-62989600D03*
%TO.P,U8,A10,VDD_18*%
%TO.N,+1V8*%
X86046000Y-62489600D03*
%TO.P,U8,A11,VSS_COLPC*%
%TO.N,GND*%
X86046000Y-61989600D03*
%TO.P,U8,B1,VDD_33*%
%TO.N,+3V3*%
X85546000Y-66989600D03*
%TO.P,U8,B2,VSS_COLPC*%
%TO.N,GND*%
X85546000Y-66489600D03*
%TO.P,U8,B3,TR1*%
X85546000Y-65989600D03*
%TO.P,U8,B4,SCK*%
%TO.N,/SPI1_SCK*%
X85546000Y-65489600D03*
%TO.P,U8,B5,LINE_VALID*%
%TO.N,/PCC_DEN2*%
X85546000Y-64989600D03*
%TO.P,U8,B6,VDD_PIX*%
%TO.N,/VDD_PIX*%
X85546000Y-64489600D03*
%TO.P,U8,B7,DOUT6*%
%TO.N,/PCC_DATA4*%
X85546000Y-63989600D03*
%TO.P,U8,B8,DOUT4*%
%TO.N,/PCC_DATA2*%
X85546000Y-63489600D03*
%TO.P,U8,B9,DOUT0*%
%TO.N,unconnected-(U8-DOUT0-PadB9)*%
X85546000Y-62989600D03*
%TO.P,U8,B10,VDD_PIX*%
%TO.N,/VDD_PIX*%
X85546000Y-62489600D03*
%TO.P,U8,B11,CLK_OUTP*%
%TO.N,unconnected-(U8-CLK_OUTP-PadB11)*%
X85546000Y-61989600D03*
%TO.P,U8,C1,MONITOR0*%
%TO.N,/MONITOR0*%
X85046000Y-66989600D03*
%TO.P,U8,C2,SCAN_EN*%
%TO.N,GND*%
X85046000Y-66489600D03*
%TO.P,U8,C3,TRIGGER0*%
%TO.N,/TRIGGER0*%
X85046000Y-65989600D03*
%TO.P,U8,C4,RESET_N*%
%TO.N,/RESET_N*%
X85046000Y-65489600D03*
%TO.P,U8,C5,DOUT9*%
%TO.N,/PCC_DATA7*%
X85046000Y-64989600D03*
%TO.P,U8,C6,DOUT8*%
%TO.N,/PCC_DATA6*%
X85046000Y-64489600D03*
%TO.P,U8,C7,DOUT5*%
%TO.N,/PCC_DATA3*%
X85046000Y-63989600D03*
%TO.P,U8,C8,DOUT3*%
%TO.N,/PCC_DATA1*%
X85046000Y-63489600D03*
%TO.P,U8,C9,DOUT1*%
%TO.N,unconnected-(U8-DOUT1-PadC9)*%
X85046000Y-62989600D03*
%TO.P,U8,C10,CLK_OUTN*%
%TO.N,unconnected-(U8-CLK_OUTN-PadC10)*%
X85046000Y-62489600D03*
%TO.P,U8,C11,DOUTP*%
%TO.N,unconnected-(U8-DOUTP-PadC11)*%
X85046000Y-61989600D03*
%TO.P,U8,D1,MONITOR1*%
%TO.N,/MONITOR1*%
X84546000Y-66989600D03*
%TO.P,U8,D2,VSS_18*%
%TO.N,GND*%
X84546000Y-66489600D03*
%TO.P,U8,D10,DOUTN*%
%TO.N,unconnected-(U8-DOUTN-PadD10)*%
X84546000Y-62489600D03*
%TO.P,U8,D11,SYNCP*%
%TO.N,unconnected-(U8-SYNCP-PadD11)*%
X84546000Y-61989600D03*
%TO.P,U8,E1,IBIAS_MASTER*%
%TO.N,Net-(U8-IBIAS_MASTER)*%
X84046000Y-66989600D03*
%TO.P,U8,E2,VSS_33*%
%TO.N,GND*%
X84046000Y-66489600D03*
%TO.P,U8,E10,SYNCN*%
%TO.N,unconnected-(U8-SYNCN-PadE10)*%
X84046000Y-62489600D03*
%TO.P,U8,E11,LVDS_CLK_INP*%
%TO.N,unconnected-(U8-LVDS_CLK_INP-PadE11)*%
X84046000Y-61989600D03*
%TO.P,U8,F1,CP_RESPD*%
%TO.N,unconnected-(U8-CP_RESPD-PadF1)*%
X83546000Y-66989600D03*
%TO.P,U8,F2,MONITOR2*%
%TO.N,/MONITOR2*%
X83546000Y-66489600D03*
%TO.P,U8,F10,LVDS_CLK_INN*%
%TO.N,unconnected-(U8-LVDS_CLK_INN-PadF10)*%
X83546000Y-62489600D03*
%TO.P,U8,F11,VDD_33*%
%TO.N,+3V3*%
X83546000Y-61989600D03*
%TO.P,U8,G1,CP_CALIB*%
%TO.N,unconnected-(U8-CP_CALIB-PadG1)*%
X83046000Y-66989600D03*
%TO.P,U8,G2,VSS_33*%
%TO.N,GND*%
X83046000Y-66489600D03*
%TO.P,U8,G3,VDD_33*%
%TO.N,+3V3*%
X83046000Y-65989600D03*
%TO.P,U8,G4,MISO*%
%TO.N,/SPI1_MISO*%
X83046000Y-65489600D03*
%TO.P,U8,G5,MOSI*%
%TO.N,/SPI1_MOSI*%
X83046000Y-64989600D03*
%TO.P,U8,G6,VSS_18*%
%TO.N,GND*%
X83046000Y-64489600D03*
%TO.P,U8,G7,VSS_18*%
X83046000Y-63989600D03*
%TO.P,U8,G8,VSS_18*%
X83046000Y-63489600D03*
%TO.P,U8,G9,CLK_PLL*%
%TO.N,/CLK1_OUT*%
X83046000Y-62989600D03*
%TO.P,U8,G10,LOCK_DETECT*%
%TO.N,/LOCK_DETECT*%
X83046000Y-62489600D03*
%TO.P,U8,G11,VSS_18*%
%TO.N,GND*%
X83046000Y-61989600D03*
%TO.P,U8,H1,MBSINOUT1*%
%TO.N,unconnected-(U8-MBSINOUT1-PadH1)*%
X82546000Y-66989600D03*
%TO.P,U8,H2,MBSINOUT1*%
%TO.N,unconnected-(U8-MBSINOUT1-PadH2)*%
X82546000Y-66489600D03*
%TO.P,U8,H3,MBSINOUT2*%
%TO.N,unconnected-(U8-MBSINOUT2-PadH3)*%
X82546000Y-65989600D03*
%TO.P,U8,H4,CP_SEL_SAMPLE*%
%TO.N,unconnected-(U8-CP_SEL_SAMPLE-PadH4)*%
X82546000Y-65489600D03*
%TO.P,U8,H5,TEST_ENABLE*%
%TO.N,GND*%
X82546000Y-64989600D03*
%TO.P,U8,H6,VREF_BOTPLATE*%
%TO.N,/VREF_BOTPLATE*%
X82546000Y-64489600D03*
%TO.P,U8,H7,VSS_33*%
%TO.N,GND*%
X82546000Y-63989600D03*
%TO.P,U8,H8,VSS_33*%
X82546000Y-63489600D03*
%TO.P,U8,H9,VDD_18*%
%TO.N,+1V8*%
X82546000Y-62989600D03*
%TO.P,U8,H10,VDD_33*%
%TO.N,+3V3*%
X82546000Y-62489600D03*
%TO.P,U8,H11,VDD_33*%
X82546000Y-61989600D03*
%TD*%
D22*
%TO.P,J9,1,Pin_1*%
%TO.N,GND*%
X85446800Y-69347600D03*
%TD*%
%TO.P,J10,1,Pin_1*%
%TO.N,/BAT+*%
X86716800Y-69347600D03*
%TD*%
D10*
%TO.P,C30,1*%
%TO.N,+3V3*%
X82041600Y-68107400D03*
%TO.P,C30,2*%
%TO.N,GND*%
X82041600Y-68657400D03*
%TD*%
D21*
%TO.P,U4,A1,IO_VL3*%
%TO.N,/SDMMC1_D2*%
X82309000Y-59073300D03*
%TO.P,U4,A2,IO_VCC3*%
%TO.N,/SD_DAT2*%
X81809000Y-59073300D03*
%TO.P,U4,A3,IO_VCC4*%
%TO.N,/SD_DAT3*%
X81309000Y-59073300D03*
%TO.P,U4,A4,IO_VL4*%
%TO.N,/SDMMC1_D3*%
X80809000Y-59073300D03*
%TO.P,U4,B1,IO_VL2*%
%TO.N,/SDMMC1_D1*%
X82309000Y-59573300D03*
%TO.P,U4,B2,IO_VCC2*%
%TO.N,/SD_DAT1*%
X81809000Y-59573300D03*
%TO.P,U4,B3,IO_VCC5*%
%TO.N,/SD_CMD*%
X81309000Y-59573300D03*
%TO.P,U4,B4,IO_VL5*%
%TO.N,/SDMMC1_CMD*%
X80809000Y-59573300D03*
%TO.P,U4,C1,VL*%
%TO.N,+1V8*%
X82309000Y-60073300D03*
%TO.P,U4,C2,VCC*%
%TO.N,+3V3*%
X81809000Y-60073300D03*
%TO.P,U4,C3,GND*%
%TO.N,GND*%
X81309000Y-60073300D03*
%TO.P,U4,C4,EN*%
%TO.N,+1V8*%
X80809000Y-60073300D03*
%TO.P,U4,D1,IO_VL1*%
%TO.N,/SDMMC1_D0*%
X82309000Y-60573300D03*
%TO.P,U4,D2,IO_VCC1*%
%TO.N,/SD_DAT0*%
X81809000Y-60573300D03*
%TO.P,U4,D3,IO_VCC6*%
%TO.N,/SD_CLK*%
X81309000Y-60573300D03*
%TO.P,U4,D4,IO_VL6*%
%TO.N,/SDMMC1_CK*%
X80809000Y-60573300D03*
%TD*%
D23*
%TO.P,U9,1,+*%
%TO.N,+1V8*%
X81218400Y-69495600D03*
%TO.P,U9,2,V-*%
%TO.N,GND*%
X80568400Y-69495600D03*
%TO.P,U9,3,-*%
%TO.N,Net-(U9--)*%
X79918400Y-69495600D03*
%TO.P,U9,4*%
X79918400Y-67675600D03*
%TO.P,U9,5,V+*%
%TO.N,+3V3*%
X81218400Y-67675600D03*
%TD*%
D16*
%TO.P,C37,1*%
%TO.N,VDC*%
X82625800Y-69825800D03*
%TO.P,C37,2*%
%TO.N,GND*%
X82625800Y-69275800D03*
%TD*%
D14*
%TO.P,C51,1*%
%TO.N,/VDD_PIX*%
X84213800Y-68382400D03*
%TO.P,C51,2*%
%TO.N,GND*%
X83323800Y-68382400D03*
%TD*%
D24*
%TO.P,U7,1,VOUT*%
%TO.N,/VDD_PIX*%
X84344600Y-69210800D03*
D25*
%TO.P,U7,2,GND*%
%TO.N,GND*%
X84344600Y-69890800D03*
D26*
%TO.P,U7,3,nSHDN*%
%TO.N,+3V3*%
X83294600Y-69890800D03*
D27*
%TO.P,U7,4,VIN*%
%TO.N,VDC*%
X83294600Y-69210800D03*
D28*
%TO.P,U7,5,EP*%
%TO.N,GND*%
X83819600Y-69550800D03*
%TD*%
D29*
%TO.P,U1,1,HPWR*%
%TO.N,Net-(U1-HPWR)*%
X88480600Y-66171100D03*
%TO.P,U1,2,FSEL*%
%TO.N,GND*%
X88880600Y-66171100D03*
%TO.P,U1,3,PBSTAT*%
%TO.N,/PUSH_BUT_MCU*%
X89280600Y-66171100D03*
%TO.P,U1,4,PGOOD*%
%TO.N,unconnected-(U1-PGOOD-Pad4)*%
X89680600Y-66171100D03*
%TO.P,U1,5,nON*%
%TO.N,/nON*%
X90080600Y-66171100D03*
D30*
%TO.P,U1,6,FB1*%
%TO.N,Net-(U1-FB1)*%
X90730600Y-66821100D03*
%TO.P,U1,7,FB2*%
%TO.N,Net-(U1-FB2)*%
X90730600Y-67221100D03*
%TO.P,U1,8,PWR_ON2*%
%TO.N,/3V3_EN*%
X90730600Y-67621100D03*
%TO.P,U1,9,PWR_ON1*%
%TO.N,+1V8*%
X90730600Y-68021100D03*
%TO.P,U1,10,STBY*%
%TO.N,GND*%
X90730600Y-68421100D03*
D29*
%TO.P,U1,11,SW2*%
%TO.N,Net-(U1-SW2)*%
X90080600Y-69071100D03*
%TO.P,U1,12,BVIN*%
%TO.N,VDC*%
X89680600Y-69071100D03*
%TO.P,U1,13,SW1*%
%TO.N,Net-(U1-SW1)*%
X89280600Y-69071100D03*
%TO.P,U1,14,nCHRG*%
%TO.N,/nCHRG*%
X88880600Y-69071100D03*
%TO.P,U1,15,NTC*%
%TO.N,GND*%
X88480600Y-69071100D03*
D30*
%TO.P,U1,16,PROG*%
%TO.N,Net-(U1-PROG)*%
X87830600Y-68421100D03*
%TO.P,U1,17,BAT*%
%TO.N,/BAT+*%
X87830600Y-68021100D03*
%TO.P,U1,18,V_OUT*%
%TO.N,VDC*%
X87830600Y-67621100D03*
%TO.P,U1,19,SUSP*%
%TO.N,unconnected-(U1-SUSP-Pad19)*%
X87830600Y-67221100D03*
%TO.P,U1,20,V_BUS*%
%TO.N,/USB_VBUS*%
X87830600Y-66821100D03*
D31*
%TO.P,U1,21,GND*%
%TO.N,GND*%
X89280600Y-67621100D03*
%TD*%
D32*
%TO.P,J14,1,Pin_1*%
%TO.N,+3V3*%
X92330200Y-60055000D03*
%TD*%
%TO.P,J15,1,Pin_1*%
%TO.N,/I2C_BB_SCL*%
X92330200Y-61325000D03*
%TD*%
%TO.P,J16,1,Pin_1*%
%TO.N,/I2C_BB_SDA*%
X92330200Y-62595000D03*
%TD*%
%TO.P,J17,1,Pin_1*%
%TO.N,/IR_REC*%
X92330200Y-63865000D03*
%TD*%
%TO.P,J18,1,Pin_1*%
%TO.N,/I_LED*%
X92330200Y-65135000D03*
%TD*%
%TO.P,J19,1,Pin_1*%
%TO.N,+1V8*%
X92330200Y-66405000D03*
%TD*%
%TO.P,J20,1,Pin_1*%
%TO.N,/nON*%
X92330200Y-67675000D03*
%TD*%
D33*
%TO.P,U2,1,GND1*%
%TO.N,GND*%
X98265400Y-61039400D03*
%TO.P,U2,2,VIN*%
%TO.N,+3V3*%
X98915400Y-61039400D03*
%TO.P,U2,3,SCL*%
%TO.N,/I2C_BB_SCL*%
X99565400Y-61039400D03*
%TO.P,U2,4,SDA*%
%TO.N,/I2C_BB_SDA*%
X100215400Y-61039400D03*
%TO.P,U2,5,VDD*%
%TO.N,+1V8*%
X100865400Y-61039400D03*
%TO.P,U2,6,GND2*%
%TO.N,GND*%
X100865400Y-64709400D03*
%TO.P,U2,7,OUT2*%
%TO.N,/EWL_2*%
X100215400Y-64709400D03*
%TO.P,U2,8,OUT1*%
%TO.N,/EWL_1*%
X99565400Y-64709400D03*
%TO.P,U2,9,NC*%
%TO.N,unconnected-(U2-NC-Pad9)*%
X98915400Y-64709400D03*
%TO.P,U2,10,HV*%
%TO.N,Net-(U2-HV)*%
X98265400Y-64709400D03*
D34*
%TO.P,U2,11*%
%TO.N,N/C*%
X99565400Y-62874400D03*
%TD*%
D16*
%TO.P,C44,1*%
%TO.N,+3V3*%
X81114400Y-62828800D03*
%TO.P,C44,2*%
%TO.N,GND*%
X81114400Y-62278800D03*
%TD*%
%TO.P,C40,1*%
%TO.N,+3V3*%
X81114400Y-66334000D03*
%TO.P,C40,2*%
%TO.N,GND*%
X81114400Y-65784000D03*
%TD*%
D10*
%TO.P,C53,1*%
%TO.N,/VREF_BOTPLATE*%
X81114400Y-64615600D03*
%TO.P,C53,2*%
%TO.N,GND*%
X81114400Y-65165600D03*
%TD*%
%TO.P,C49,1*%
%TO.N,+1V8*%
X81114500Y-63447200D03*
%TO.P,C49,2*%
%TO.N,GND*%
X81114500Y-63997200D03*
%TD*%
D16*
%TO.P,R16,1*%
%TO.N,+1V8*%
X91424700Y-65643500D03*
%TO.P,R16,2*%
%TO.N,/PUSH_BUT_MCU*%
X91424700Y-65093500D03*
%TD*%
D35*
%TO.P,R17,1*%
%TO.N,Net-(U1-HPWR)*%
X86751100Y-68213300D03*
%TO.P,R17,2*%
%TO.N,/USB_VBUS*%
X86201100Y-68213300D03*
%TD*%
D32*
%TO.P,J11,1,Pin_1*%
%TO.N,GND*%
X92330200Y-68945000D03*
%TD*%
D10*
%TO.P,R19,1*%
%TO.N,Net-(Q2-B)*%
X86636800Y-60153200D03*
%TO.P,R19,2*%
%TO.N,/LED_STATUS*%
X86636800Y-60703200D03*
%TD*%
D36*
%TO.P,Q2,1,B*%
%TO.N,Net-(Q2-B)*%
X85640600Y-58476000D03*
%TO.P,Q2,2,E*%
%TO.N,GND*%
X85640600Y-58926000D03*
D37*
%TO.P,Q2,3,C*%
%TO.N,Net-(D2-K)*%
X84940600Y-58701000D03*
%TD*%
D38*
%TO.N,Net-(U1-FB1)*%
X87808100Y-66367500D03*
D39*
X90601400Y-66808300D03*
D38*
%TO.N,Net-(U1-FB2)*%
X90857000Y-66367500D03*
%TO.N,Net-(D2-K)*%
X82191800Y-65254200D03*
D39*
X84960400Y-58701000D03*
D38*
%TO.N,Net-(U1-SW1)*%
X87945402Y-69462600D03*
D39*
X89280600Y-68903800D03*
D38*
%TO.N,Net-(U1-SW2)*%
X90614100Y-69513400D03*
%TO.N,Net-(U6B-VSW)*%
X91615200Y-61410790D03*
D39*
%TO.N,Net-(Q2-B)*%
X86630160Y-60112368D03*
X85620800Y-58472400D03*
D38*
%TO.N,Net-(U1-PROG)*%
X87449600Y-68480000D03*
D39*
%TO.N,Net-(U1-HPWR)*%
X88491000Y-66473400D03*
X86738400Y-68213300D03*
D38*
%TO.N,GND*%
X81051000Y-68497400D03*
X83349700Y-68357700D03*
X85474133Y-59612893D03*
X81114500Y-65779600D03*
X92060200Y-69335600D03*
D40*
X99140000Y-68270000D03*
X102200000Y-63590000D03*
D38*
X83957611Y-64010396D03*
D40*
X103820000Y-63550000D03*
X100980000Y-68300000D03*
D38*
X83210000Y-61537800D03*
D40*
X102210000Y-61070000D03*
X99819400Y-66125600D03*
D38*
X81571700Y-61131400D03*
X83556203Y-64504598D03*
X86446800Y-64941400D03*
X83932200Y-66033600D03*
D40*
X99370000Y-62120000D03*
X104410000Y-63580000D03*
D38*
X86131000Y-67544900D03*
X82625800Y-69275800D03*
X85032200Y-68810200D03*
X82090200Y-63476200D03*
X91615200Y-69707000D03*
X83946500Y-60170600D03*
X88417000Y-59963000D03*
X83819600Y-69551500D03*
X81889200Y-58464400D03*
X85722400Y-68835600D03*
X81127200Y-62274400D03*
X89318700Y-67316300D03*
X90282200Y-64535000D03*
X82079700Y-63988900D03*
D39*
X81317700Y-60077300D03*
X89982200Y-62398200D03*
X88782200Y-62398200D03*
X90382200Y-63198200D03*
D38*
%TO.N,/SD_DAT2*%
X79844500Y-60890100D03*
%TO.N,/SD_DAT3*%
X80187400Y-61741000D03*
%TO.N,/SD_DAT0*%
X82067000Y-61017100D03*
%TO.N,/SD_CMD*%
X79971500Y-62769700D03*
D39*
X81305000Y-59569300D03*
D38*
%TO.N,/SD_CLK*%
X81130607Y-61000993D03*
%TO.N,/SD_DAT1*%
X80352500Y-59937600D03*
D39*
X81813000Y-59582000D03*
D38*
%TO.N,/USB_VBUS*%
X86933200Y-66502800D03*
%TO.N,/SWCLK*%
X86154200Y-60123400D03*
D39*
X89982200Y-61998200D03*
D38*
%TO.N,/SWDIO*%
X86116600Y-61029800D03*
D39*
X89582200Y-61998200D03*
D38*
%TO.N,+1V8*%
X91676198Y-62223610D03*
D40*
X100860800Y-61045600D03*
D38*
X81508200Y-68522800D03*
X81114500Y-63447200D03*
X82706100Y-60017900D03*
X91676174Y-59683600D03*
X84465600Y-66006475D03*
X84160800Y-63595200D03*
X88021597Y-68785053D03*
X82143200Y-62210900D03*
X91145275Y-68904400D03*
D40*
X102350000Y-62640000D03*
D38*
X85664425Y-60683005D03*
X87920000Y-65805000D03*
D39*
X86054800Y-66490800D03*
X92330200Y-66405000D03*
X89182200Y-62798200D03*
X86726200Y-61766400D03*
X90730600Y-68021100D03*
X90382200Y-61998200D03*
X89982200Y-62798200D03*
D38*
%TO.N,/SPI1_MOSI*%
X83451300Y-64966800D03*
D39*
X88782200Y-61198200D03*
D38*
%TO.N,/SPI1_MISO*%
X83787717Y-65298375D03*
D39*
X88382200Y-61198200D03*
%TO.N,/SPI1_SCK*%
X88782200Y-61598200D03*
X85787754Y-65731537D03*
%TO.N,/SPI1_NSS*%
X86052254Y-65490537D03*
X87640600Y-61791800D03*
D38*
%TO.N,/SDMMC1_D0*%
X82884880Y-60430360D03*
D39*
X88382200Y-61598200D03*
D38*
%TO.N,/SDMMC1_D1*%
X83982160Y-61273640D03*
X82675813Y-59581213D03*
%TO.N,/SDMMC1_D3*%
X80365202Y-59074000D03*
X84454600Y-61359968D03*
%TO.N,/SDMMC1_CMD*%
X80377900Y-59505800D03*
D39*
X87982200Y-60798200D03*
%TO.N,/SDMMC1_D2*%
X82309000Y-59073300D03*
X88382200Y-61998200D03*
D38*
%TO.N,/SDMMC1_CK*%
X82346400Y-61461600D03*
D39*
X88382200Y-62398200D03*
D38*
%TO.N,+3V3*%
X83946500Y-60720600D03*
X81216100Y-67684600D03*
D40*
X99133600Y-65490600D03*
D38*
X80035000Y-63950800D03*
X81114500Y-62833200D03*
X91424700Y-64644610D03*
X83792000Y-67802000D03*
X82259295Y-65741708D03*
X83311500Y-60720600D03*
D40*
X98930400Y-61020200D03*
D38*
X83652687Y-65681699D03*
X83300000Y-69880000D03*
D39*
X83946600Y-59416900D03*
X89901200Y-65144600D03*
X83551200Y-61995000D03*
X92365000Y-60039200D03*
X81813000Y-60077300D03*
D40*
%TO.N,/EWL_1*%
X102300000Y-65990000D03*
%TO.N,/EWL_2*%
X102299996Y-64770000D03*
D38*
%TO.N,/LED_PWM*%
X91245317Y-60771100D03*
%TO.N,VDC*%
X89307600Y-69800400D03*
X82625800Y-69830900D03*
X87043200Y-67349700D03*
%TO.N,/ENT*%
X90290855Y-60437692D03*
D39*
X90380880Y-61198200D03*
D38*
%TO.N,/VDD_PIX*%
X85546000Y-64489600D03*
X83627400Y-63519002D03*
D39*
X85546800Y-62490300D03*
X86046000Y-66989600D03*
D38*
%TO.N,/VDDA*%
X89129800Y-60025800D03*
%TO.N,/RESET_N*%
X84480000Y-65346075D03*
X86614267Y-63531700D03*
%TO.N,/TRIGGER0*%
X84165513Y-65676275D03*
X87550000Y-63250000D03*
%TO.N,/MONITOR0*%
X83330000Y-67690000D03*
D39*
X87475000Y-60072600D03*
D38*
%TO.N,/BAT+*%
X86125873Y-69346527D03*
D40*
%TO.N,/IR_REC*%
X101110000Y-65340000D03*
D38*
%TO.N,/XIN32*%
X91628400Y-60466300D03*
%TO.N,/XOUT32*%
X90167400Y-59640800D03*
%TO.N,/VDDCORE*%
X91589800Y-62993600D03*
%TO.N,/nRESET*%
X87437400Y-66084400D03*
D39*
X90382200Y-62398200D03*
D38*
%TO.N,/CLK1_OUT*%
X84150000Y-63150000D03*
X87058100Y-63224392D03*
D39*
%TO.N,/PCC_DEN2*%
X88382200Y-63198200D03*
X85546800Y-64992200D03*
%TO.N,/PCC_DATA0*%
X88382200Y-63598200D03*
X86471360Y-63041480D03*
%TO.N,/PCC_DEN1*%
X88782200Y-63198200D03*
X86046000Y-64989600D03*
%TO.N,/PCC_DATA1*%
X87250000Y-63836500D03*
X85046000Y-63489600D03*
%TO.N,/PCC_DATA3*%
X85045999Y-63988900D03*
X89182200Y-63198200D03*
%TO.N,/PCC_DATA2*%
X87423389Y-64153977D03*
X85546800Y-63493600D03*
%TO.N,/PCC_DATA5*%
X89153600Y-64042800D03*
X89582200Y-62798200D03*
%TO.N,/PCC_DATA4*%
X89582200Y-63198200D03*
X85724600Y-64141300D03*
D38*
%TO.N,/ADC0*%
X90536200Y-68776800D03*
D39*
X89982200Y-61198200D03*
D38*
%TO.N,/PCC_DATA7*%
X84175200Y-65002360D03*
D39*
X89982200Y-63198200D03*
%TO.N,/PCC_DATA6*%
X87056400Y-64916000D03*
X85048960Y-64494360D03*
D40*
%TO.N,/I2C_BB_SDA*%
X100238009Y-60867800D03*
D39*
X90782200Y-61198200D03*
X92381000Y-62595000D03*
D40*
%TO.N,/I2C_BB_SCL*%
X99565419Y-61285419D03*
D39*
X92402600Y-61317200D03*
X90782200Y-60798200D03*
D40*
%TO.N,/I_LED*%
X103900000Y-65410000D03*
D38*
X92123196Y-65025600D03*
%TO.N,/UART_RX*%
X91704600Y-68319600D03*
D39*
X89547946Y-64013589D03*
D38*
%TO.N,/UART_TX*%
X91441871Y-67629458D03*
D39*
X89582200Y-62398200D03*
D38*
%TO.N,/SD_DET*%
X86281200Y-59488402D03*
D39*
%TO.N,/PUSH_BUT_MCU*%
X89280600Y-65863790D03*
X91424700Y-65093500D03*
D40*
%TO.N,/nON*%
X97700000Y-60740000D03*
D39*
%TO.N,/3V3_EN*%
X90730600Y-67621100D03*
X90917200Y-64255600D03*
D38*
%TO.N,/nCHRG*%
X88872000Y-68810200D03*
X87398800Y-68962600D03*
D39*
X91692116Y-63424684D03*
%TD*%
D41*
%TO.N,Net-(U1-FB2)*%
X90730600Y-67221100D02*
X91230000Y-67221100D01*
X91426900Y-67024200D02*
X91426900Y-66681300D01*
X91113100Y-66367500D02*
X90857000Y-66367500D01*
X91230000Y-67221100D02*
X91426900Y-67024200D01*
X91426900Y-66681300D02*
X91113100Y-66367500D01*
%TO.N,Net-(U2-HV)*%
X98265400Y-65886600D02*
X98479000Y-66100200D01*
X98265400Y-64709400D02*
X98265400Y-65886600D01*
D42*
%TO.N,Net-(D2-K)*%
X84940600Y-58701000D02*
X84960400Y-58701000D01*
D41*
%TO.N,Net-(U1-SW2)*%
X90425100Y-69324400D02*
X90614100Y-69513400D01*
X90082200Y-69324400D02*
X90425100Y-69324400D01*
%TO.N,Net-(U9--)*%
X79918400Y-69495600D02*
X79918400Y-67675600D01*
X79918400Y-66644800D02*
X80162000Y-66401200D01*
X79918400Y-67675600D02*
X79918400Y-66644800D01*
D42*
%TO.N,Net-(U6B-VSW)*%
X90782200Y-61998200D02*
X91027790Y-61998200D01*
X91027790Y-61998200D02*
X91615200Y-61410790D01*
%TO.N,Net-(Q2-B)*%
X86636800Y-60119008D02*
X86630160Y-60112368D01*
X85624400Y-58476000D02*
X85620800Y-58472400D01*
X86636800Y-60153200D02*
X86636800Y-60119008D01*
X85640600Y-58476000D02*
X85624400Y-58476000D01*
D41*
%TO.N,Net-(U1-PROG)*%
X87521200Y-68421100D02*
X87462300Y-68480000D01*
X87830600Y-68421100D02*
X87521200Y-68421100D01*
%TO.N,Net-(U1-HPWR)*%
X88480600Y-66171100D02*
X88480600Y-66463000D01*
X88480600Y-66463000D02*
X88491000Y-66473400D01*
X86751100Y-68213300D02*
X86738400Y-68213300D01*
D43*
%TO.N,Net-(U8-IBIAS_MASTER)*%
X84046000Y-66989600D02*
X84046000Y-67114000D01*
X83298200Y-67289490D02*
X82630000Y-67957690D01*
X82630000Y-67960000D02*
X82630000Y-68115000D01*
X84046000Y-67114000D02*
X83870510Y-67289490D01*
X83870510Y-67289490D02*
X83298200Y-67289490D01*
X82630000Y-67957690D02*
X82630000Y-67960000D01*
D41*
%TO.N,GND*%
X82625800Y-69275800D02*
X82625800Y-69275800D01*
X85722400Y-68835600D02*
X85565600Y-69228800D01*
X88880600Y-67221100D02*
X89280600Y-67621100D01*
X90612400Y-65159400D02*
X90612400Y-64865200D01*
D42*
X90080600Y-68421100D02*
X89280600Y-67621100D01*
X86046000Y-65989600D02*
X86435800Y-66379400D01*
X82103600Y-63489600D02*
X82090200Y-63476200D01*
D41*
X104410000Y-63580000D02*
X104370000Y-63580000D01*
X98265400Y-61039400D02*
X98265400Y-61574400D01*
D42*
X86017240Y-66018360D02*
X86046000Y-65989600D01*
D41*
X100865400Y-64174400D02*
X99565400Y-62874400D01*
D42*
X86046000Y-61989600D02*
X86009600Y-61989600D01*
X84046000Y-66147400D02*
X83932200Y-66033600D01*
D41*
X84344600Y-69890800D02*
X84158900Y-69890800D01*
D42*
X83046000Y-61989600D02*
X83046000Y-61701800D01*
D41*
X82041600Y-69225000D02*
X82016200Y-69250400D01*
X83311500Y-60170600D02*
X83946500Y-60170600D01*
X84903600Y-69890800D02*
X85446800Y-69347600D01*
D42*
X85565600Y-68678800D02*
X85722400Y-68835600D01*
X85046000Y-66489600D02*
X84546000Y-66489600D01*
X89182200Y-61998200D02*
X88782200Y-62398200D01*
X85574760Y-66018360D02*
X86017240Y-66018360D01*
X83336969Y-61664769D02*
X83210000Y-61537800D01*
D41*
X83946500Y-58862500D02*
X84014500Y-58862500D01*
X87993400Y-65134000D02*
X87981400Y-65134000D01*
X103820000Y-64130000D02*
X103800000Y-64150000D01*
X98265400Y-61574400D02*
X99565400Y-62874400D01*
X82041600Y-68657400D02*
X82041600Y-69225000D01*
X88482200Y-69324400D02*
X88482200Y-68722328D01*
X100865400Y-64709400D02*
X100865400Y-64174400D01*
X90612400Y-64865200D02*
X90282200Y-64535000D01*
X89011928Y-68192600D02*
X89306000Y-68192600D01*
D42*
X85565600Y-68208400D02*
X85565600Y-68678800D01*
D43*
X82630000Y-69271600D02*
X82625800Y-69275800D01*
D42*
X86435800Y-67240100D02*
X86131000Y-67544900D01*
D41*
X90636000Y-65159400D02*
X90636000Y-64988700D01*
D42*
X83046000Y-66489600D02*
X83502000Y-66033600D01*
X85699100Y-59670400D02*
X85531640Y-59670400D01*
X85684769Y-61664769D02*
X83336969Y-61664769D01*
D41*
X81114400Y-65165600D02*
X81114400Y-65784000D01*
X81122800Y-63988900D02*
X81114500Y-63997200D01*
X104370000Y-63580000D02*
X103800000Y-64150000D01*
X87894599Y-65220801D02*
X86726201Y-65220801D01*
X84284500Y-60170600D02*
X84759300Y-59695800D01*
X84014500Y-58862500D02*
X84759300Y-59607300D01*
D42*
X86046000Y-64540600D02*
X86446800Y-64941400D01*
X85640600Y-59611900D02*
X85699100Y-59670400D01*
D41*
X85565600Y-69228800D02*
X85446800Y-69347600D01*
X81114500Y-63997200D02*
X81057600Y-63997200D01*
X86046000Y-65989600D02*
X86111500Y-65989600D01*
X80568400Y-69495600D02*
X80568400Y-68980000D01*
X85640600Y-58926000D02*
X85640600Y-59611900D01*
X82080400Y-63989600D02*
X82079700Y-63988900D01*
X80568400Y-68980000D02*
X81051000Y-68497400D01*
D42*
X88782200Y-62398200D02*
X88782200Y-62798200D01*
X85546000Y-65989600D02*
X85574760Y-66018360D01*
D41*
X86726201Y-65220801D02*
X86446800Y-64941400D01*
X87981400Y-65134000D02*
X87894599Y-65220801D01*
D42*
X84046000Y-66489600D02*
X84046000Y-66147400D01*
D41*
X83946500Y-60170600D02*
X84284500Y-60170600D01*
D42*
X83046000Y-63989600D02*
X82080400Y-63989600D01*
D41*
X88880600Y-66171100D02*
X88880600Y-67221100D01*
D42*
X82546000Y-64989600D02*
X83046000Y-64489600D01*
X85446800Y-69347600D02*
X85446800Y-69224800D01*
D41*
X84759300Y-59607300D02*
X84759300Y-59695800D01*
D42*
X83046000Y-64489600D02*
X83541205Y-64489600D01*
D41*
X90636000Y-65159400D02*
X90612400Y-65159400D01*
X81057600Y-63997200D02*
X80533000Y-63472600D01*
X80533000Y-63472600D02*
X80479500Y-63472600D01*
X88482200Y-68722328D02*
X89011928Y-68192600D01*
D42*
X85531640Y-59670400D02*
X85474133Y-59612893D01*
X86009600Y-61989600D02*
X85684769Y-61664769D01*
D41*
X81101700Y-62291500D02*
X81114400Y-62278800D01*
D42*
X85546000Y-66489600D02*
X85046000Y-66489600D01*
X86046000Y-64489600D02*
X86046000Y-64540600D01*
D41*
X80454100Y-62291500D02*
X81101700Y-62291500D01*
D42*
X86435800Y-66379400D02*
X86435800Y-67240100D01*
X90730600Y-68421100D02*
X90080600Y-68421100D01*
D41*
X84344600Y-69890800D02*
X84903600Y-69890800D01*
D42*
X83502000Y-66033600D02*
X83932200Y-66033600D01*
D41*
X83946500Y-58862500D02*
X83311500Y-58862500D01*
D42*
X83046000Y-61701800D02*
X83210000Y-61537800D01*
X85446800Y-69224800D02*
X85032200Y-68810200D01*
D41*
X84158900Y-69890800D02*
X83819600Y-69551500D01*
X87993400Y-65134000D02*
X87993400Y-64996700D01*
X82079700Y-63988900D02*
X81122800Y-63988900D01*
X83541205Y-64489600D02*
X83556203Y-64504598D01*
D42*
X83046000Y-63489600D02*
X82103600Y-63489600D01*
D43*
X82630000Y-68665000D02*
X82630000Y-69271600D01*
D42*
X84546000Y-66489600D02*
X84046000Y-66489600D01*
D41*
X82016200Y-69250400D02*
X82600400Y-69250400D01*
X103820000Y-63550000D02*
X103820000Y-64130000D01*
X82600400Y-69250400D02*
X82625800Y-69275800D01*
D42*
%TO.N,/SD_DAT2*%
X81225487Y-58489787D02*
X80101488Y-58489787D01*
X81809000Y-59073300D02*
X81225487Y-58489787D01*
X79780990Y-60890100D02*
X79730200Y-60839310D01*
X80101488Y-58489787D02*
X79730200Y-58861075D01*
X79730200Y-58861075D02*
X79730200Y-60839310D01*
D41*
X79844500Y-60890100D02*
X79780990Y-60890100D01*
D42*
%TO.N,/SD_DAT3*%
X80979498Y-58743798D02*
X80206702Y-58743798D01*
X80022300Y-58928200D02*
X80022300Y-60394800D01*
D41*
X80200100Y-61728300D02*
X80187400Y-61741000D01*
D42*
X80200100Y-60572600D02*
X80200100Y-61728300D01*
X80022300Y-60394800D02*
X80200100Y-60572600D01*
X81309000Y-59073300D02*
X80979498Y-58743798D01*
X80206702Y-58743798D02*
X80022300Y-58928200D01*
%TO.N,/SD_DAT0*%
X81809000Y-60759100D02*
X82067000Y-61017100D01*
X81809000Y-60573300D02*
X81809000Y-60759100D01*
%TO.N,/SD_CLK*%
X81309000Y-60573300D02*
X81309000Y-60822600D01*
X81309000Y-60822600D02*
X81130607Y-61000993D01*
D41*
%TO.N,/USB_VBUS*%
X87830600Y-66821100D02*
X87251500Y-66821100D01*
X86700300Y-66735700D02*
X86700300Y-67514800D01*
X86201100Y-68014000D02*
X86201100Y-68213300D01*
X86933200Y-66502800D02*
X86700300Y-66735700D01*
X87251500Y-66821100D02*
X86933200Y-66502800D01*
X86700300Y-67514800D02*
X86201100Y-68014000D01*
%TO.N,+1V8*%
X82706100Y-60017900D02*
X83311500Y-59412500D01*
D42*
X82309000Y-60073300D02*
X82650700Y-60073300D01*
X91374400Y-68239900D02*
X91374400Y-68675275D01*
X90730600Y-68023600D02*
X90714000Y-68040200D01*
D41*
X88093924Y-65805000D02*
X87920000Y-65805000D01*
X92095200Y-66405000D02*
X92085600Y-66414600D01*
D42*
X81724111Y-61791811D02*
X82143200Y-62210900D01*
D41*
X81508200Y-68635400D02*
X81508200Y-68522800D01*
D42*
X90730600Y-68021100D02*
X91155600Y-68021100D01*
D41*
X91424700Y-65643500D02*
X91568700Y-65643500D01*
D42*
X81114500Y-63447200D02*
X81484200Y-63447200D01*
D41*
X81218400Y-68925200D02*
X81508200Y-68635400D01*
D42*
X81484200Y-63447200D02*
X81941800Y-62989600D01*
X90730600Y-68021100D02*
X90730600Y-68023600D01*
D41*
X88883400Y-65134000D02*
X88764924Y-65134000D01*
D42*
X80506199Y-60376101D02*
X80506199Y-61202799D01*
X80809000Y-60073300D02*
X80506199Y-60376101D01*
X81095211Y-61791811D02*
X81724111Y-61791811D01*
D41*
X91568700Y-65643500D02*
X92330200Y-66405000D01*
D42*
X80506199Y-61202799D02*
X81095211Y-61791811D01*
D41*
X82650700Y-60073300D02*
X82706100Y-60017900D01*
X81523200Y-69800400D02*
X81218400Y-69495600D01*
X81218400Y-69495600D02*
X81218400Y-68925200D01*
D42*
X86046000Y-62489600D02*
X86046000Y-62446600D01*
D41*
X88764924Y-65134000D02*
X88093924Y-65805000D01*
D42*
X91155600Y-68021100D02*
X91374400Y-68239900D01*
X86046000Y-62446600D02*
X86726200Y-61766400D01*
D41*
X92330200Y-66405000D02*
X92095200Y-66405000D01*
X82016200Y-69800400D02*
X81523200Y-69800400D01*
D42*
X89182200Y-62398200D02*
X89182200Y-62798200D01*
X81941800Y-62989600D02*
X82546000Y-62989600D01*
X91374400Y-68675275D02*
X91145275Y-68904400D01*
D41*
X81114500Y-63447200D02*
X81114500Y-63447200D01*
D42*
%TO.N,/SPI1_MOSI*%
X83046000Y-64989600D02*
X83428500Y-64989600D01*
D41*
X83428500Y-64989600D02*
X83451300Y-64966800D01*
D42*
%TO.N,/SPI1_MISO*%
X83046000Y-65489600D02*
X83237225Y-65298375D01*
X83237225Y-65298375D02*
X83787717Y-65298375D01*
%TO.N,/SPI1_SCK*%
X85787754Y-65731354D02*
X85787754Y-65731537D01*
X85546000Y-65489600D02*
X85787754Y-65731354D01*
%TO.N,/SPI1_NSS*%
X87982200Y-61998200D02*
X87847000Y-61998200D01*
X87847000Y-61998200D02*
X87640600Y-61791800D01*
%TO.N,/SDMMC1_D0*%
X82309000Y-60573300D02*
X82741940Y-60573300D01*
X82741940Y-60573300D02*
X82884880Y-60430360D01*
%TO.N,/SDMMC1_D1*%
X82309000Y-59573300D02*
X82667900Y-59573300D01*
D41*
X82667900Y-59573300D02*
X82675813Y-59581213D01*
D42*
X87982200Y-61198200D02*
X87867901Y-61083901D01*
X87867901Y-61083901D02*
X86646699Y-61083901D01*
X84205800Y-61050000D02*
X83982160Y-61273640D01*
X85679600Y-61050000D02*
X84205800Y-61050000D01*
X85993457Y-61363857D02*
X85679600Y-61050000D01*
X86366743Y-61363857D02*
X85993457Y-61363857D01*
X86646699Y-61083901D02*
X86366743Y-61363857D01*
%TO.N,/SDMMC1_D3*%
X85701459Y-61359968D02*
X84454600Y-61359968D01*
D41*
X80365902Y-59073300D02*
X80365202Y-59074000D01*
D42*
X87784000Y-61400000D02*
X86686200Y-61400000D01*
X87982200Y-61598200D02*
X87784000Y-61400000D01*
X86472200Y-61614000D02*
X85955491Y-61614000D01*
X86686200Y-61400000D02*
X86472200Y-61614000D01*
X85955491Y-61614000D02*
X85701459Y-61359968D01*
X80809000Y-59073300D02*
X80365902Y-59073300D01*
D41*
%TO.N,/SDMMC1_CMD*%
X80445400Y-59573300D02*
X80377900Y-59505800D01*
D42*
X80809000Y-59573300D02*
X80445400Y-59573300D01*
%TO.N,/SDMMC1_CK*%
X80784322Y-61121697D02*
X81124225Y-61461600D01*
X81124225Y-61461600D02*
X82346400Y-61461600D01*
D41*
X80809000Y-60573300D02*
X80784322Y-60597978D01*
D42*
X80784322Y-60597978D02*
X80784322Y-61121697D01*
D41*
%TO.N,+3V3*%
X83311500Y-60720600D02*
X83311500Y-60720600D01*
X83946500Y-60720600D02*
X83946500Y-60720600D01*
X89746000Y-65159400D02*
X89886400Y-65159400D01*
D42*
X84736700Y-67798900D02*
X85546000Y-66989600D01*
X83353901Y-65681699D02*
X83652687Y-65681699D01*
X83546000Y-61989800D02*
X83551200Y-61995000D01*
D41*
X92349200Y-60055000D02*
X92365000Y-60039200D01*
D42*
X82714699Y-61317401D02*
X83311500Y-60720600D01*
D41*
X80462400Y-62833200D02*
X80454100Y-62841500D01*
D42*
X81233500Y-62714200D02*
X81114500Y-62833200D01*
D41*
X82041600Y-68107400D02*
X81638900Y-68107400D01*
D42*
X83792000Y-67802000D02*
X84736700Y-67798900D01*
X82714699Y-61820901D02*
X82714699Y-61317401D01*
D41*
X81638900Y-68107400D02*
X81216100Y-67684600D01*
D42*
X83546000Y-61989600D02*
X83546000Y-61989800D01*
D41*
X83294600Y-69890800D02*
X83248100Y-69844300D01*
D42*
X82321400Y-62714200D02*
X81233500Y-62714200D01*
D41*
X80454100Y-62841500D02*
X80454100Y-62890098D01*
X80035000Y-63309198D02*
X80035000Y-63950800D01*
X83946500Y-60720600D02*
X84624500Y-60720600D01*
D42*
X82546000Y-62489600D02*
X82321400Y-62714200D01*
X82546000Y-61989600D02*
X82714699Y-61820901D01*
D41*
X89886400Y-65159400D02*
X89901200Y-65144600D01*
D42*
X83046000Y-65989600D02*
X83353901Y-65681699D01*
D41*
X92330200Y-60055000D02*
X92349200Y-60055000D01*
D42*
X81667003Y-66334000D02*
X82259295Y-65741708D01*
X81114400Y-66334000D02*
X81667003Y-66334000D01*
D41*
X80454100Y-62890098D02*
X80035000Y-63309198D01*
%TO.N,/EWL_1*%
X100781398Y-65990000D02*
X102300000Y-65990000D01*
X99565400Y-64709400D02*
X99565400Y-64774002D01*
X99565400Y-64774002D02*
X100781398Y-65990000D01*
%TO.N,/EWL_2*%
X102299996Y-65320004D02*
X102299996Y-64770000D01*
X100215400Y-64709400D02*
X100215400Y-65059400D01*
X100856000Y-65700000D02*
X101920000Y-65700000D01*
X101920000Y-65700000D02*
X102299996Y-65320004D01*
X100215400Y-65059400D02*
X100856000Y-65700000D01*
D42*
%TO.N,/LED_PWM*%
X91245317Y-61135083D02*
X91245317Y-60771100D01*
X90782200Y-61598200D02*
X91245317Y-61135083D01*
D41*
%TO.N,VDC*%
X87314600Y-67621100D02*
X87830600Y-67621100D01*
X89315200Y-69792800D02*
X89307600Y-69800400D01*
D43*
X83245900Y-69210800D02*
X83294600Y-69210800D01*
D41*
X89680600Y-69608700D02*
X89496500Y-69792800D01*
X89496500Y-69792800D02*
X89315200Y-69792800D01*
D43*
X82625800Y-69830900D02*
X83245900Y-69210800D01*
D41*
X82690800Y-69890800D02*
X82625800Y-69825800D01*
X87043200Y-67349700D02*
X87314600Y-67621100D01*
X89680600Y-69071100D02*
X89680600Y-69608700D01*
X83248100Y-69257300D02*
X83294600Y-69210800D01*
%TO.N,/VDD_PIX*%
X84344600Y-68513200D02*
X84213800Y-68382400D01*
X84361800Y-68234400D02*
X84213800Y-68382400D01*
D42*
X84988000Y-68047600D02*
X84988000Y-68234400D01*
X86046000Y-66989600D02*
X84988000Y-68047600D01*
D41*
X84344600Y-69210800D02*
X84344600Y-68513200D01*
X84988000Y-68234400D02*
X84361800Y-68234400D01*
%TO.N,/VREF_BOTPLATE*%
X80479400Y-64753800D02*
X80162000Y-65071200D01*
D42*
X82333700Y-64623900D02*
X81122700Y-64623900D01*
D41*
X81122700Y-64623900D02*
X81114400Y-64615600D01*
X80528600Y-65017600D02*
X80428700Y-65017600D01*
X80479500Y-64022600D02*
X80479500Y-64753700D01*
X80930600Y-64615600D02*
X80528600Y-65017600D01*
D42*
X82546000Y-64489600D02*
X82468000Y-64489600D01*
D41*
X80479500Y-64753700D02*
X80162000Y-65071200D01*
X81114400Y-64615600D02*
X80930600Y-64615600D01*
D42*
X82468000Y-64489600D02*
X82333700Y-64623900D01*
%TO.N,/VDDA*%
X89182200Y-60078200D02*
X89129800Y-60025800D01*
X89182200Y-60798200D02*
X89182200Y-60078200D01*
%TO.N,/RESET_N*%
X86753299Y-63392668D02*
X86614267Y-63531700D01*
X87982200Y-62398200D02*
X87433186Y-62398200D01*
X86753299Y-63078087D02*
X86753299Y-63392668D01*
X84902475Y-65346075D02*
X84480000Y-65346075D01*
X86850000Y-62981386D02*
X86753299Y-63078087D01*
X87433186Y-62398200D02*
X86850000Y-62981386D01*
X85046000Y-65489600D02*
X84902475Y-65346075D01*
%TO.N,/TRIGGER0*%
X87982200Y-63198200D02*
X87601800Y-63198200D01*
X87601800Y-63198200D02*
X87550000Y-63250000D01*
X84732675Y-65676275D02*
X84165513Y-65676275D01*
X85046000Y-65989600D02*
X84732675Y-65676275D01*
%TO.N,/MONITOR0*%
X88382200Y-60798200D02*
X88063000Y-60479000D01*
X88063000Y-60479000D02*
X87881400Y-60479000D01*
X83330000Y-67650000D02*
X83500000Y-67480000D01*
X83330000Y-67690000D02*
X83330000Y-67650000D01*
D41*
X83334800Y-67687326D02*
X83332126Y-67690000D01*
X83332126Y-67690000D02*
X83330000Y-67690000D01*
X83334800Y-67665200D02*
X83334800Y-67687326D01*
D42*
X84590000Y-67480000D02*
X85046000Y-67024000D01*
X83500000Y-67480000D02*
X84590000Y-67480000D01*
X85046000Y-67024000D02*
X85046000Y-66989600D01*
X87881400Y-60479000D02*
X87475000Y-60072600D01*
D41*
%TO.N,/BAT+*%
X87101691Y-68582083D02*
X86716800Y-68966974D01*
D42*
X86126946Y-69347600D02*
X86125873Y-69346527D01*
D41*
X87286200Y-68021100D02*
X87101691Y-68205609D01*
X87830600Y-68021100D02*
X87286200Y-68021100D01*
X87101691Y-68205609D02*
X87101691Y-68582083D01*
X86716800Y-68966974D02*
X86716800Y-69347600D01*
D42*
X86716800Y-69347600D02*
X86126946Y-69347600D01*
%TO.N,/IR_REC*%
X90952000Y-63198200D02*
X91618800Y-63865000D01*
X90782200Y-63198200D02*
X90952000Y-63198200D01*
X91618800Y-63865000D02*
X92381000Y-63865000D01*
%TO.N,/XIN32*%
X90382200Y-60777400D02*
X90382200Y-60798200D01*
X90693300Y-60466300D02*
X90382200Y-60777400D01*
X91628400Y-60466300D02*
X90693300Y-60466300D01*
%TO.N,/XOUT32*%
X90167400Y-59640800D02*
X89982200Y-59826000D01*
X89982200Y-59826000D02*
X89982200Y-60798200D01*
%TO.N,/VDDCORE*%
X90782200Y-62398200D02*
X90994400Y-62398200D01*
X90994400Y-62398200D02*
X91589800Y-62993600D01*
%TO.N,/CLK1_OUT*%
X87982200Y-62798200D02*
X87484292Y-62798200D01*
X83989600Y-62989600D02*
X84150000Y-63150000D01*
X83046000Y-62989600D02*
X83989600Y-62989600D01*
X87484292Y-62798200D02*
X87058100Y-63224392D01*
%TO.N,/PCC_CLK*%
X86046000Y-63489600D02*
X86113500Y-63557100D01*
X86392901Y-63836501D02*
X86046000Y-63489600D01*
X87941099Y-63557099D02*
X87042901Y-63557099D01*
X87941100Y-63557100D02*
X87982200Y-63598200D01*
X87042901Y-63557099D02*
X86763499Y-63836501D01*
X86763499Y-63836501D02*
X86392901Y-63836501D01*
X87982200Y-63598200D02*
X87941099Y-63557099D01*
%TO.N,/PCC_DATA0*%
X86419480Y-62989600D02*
X86471360Y-63041480D01*
X86046000Y-62989600D02*
X86419480Y-62989600D01*
%TO.N,/PCC_DEN1*%
X88782200Y-63198200D02*
X88382200Y-62798200D01*
D41*
X86046000Y-64989600D02*
X86046000Y-65026800D01*
D42*
%TO.N,/PCC_DATA1*%
X87429605Y-63836500D02*
X87250000Y-63836500D01*
X87470706Y-63877601D02*
X87429605Y-63836500D01*
X88782200Y-63598200D02*
X88502799Y-63877601D01*
X88502799Y-63877601D02*
X87470706Y-63877601D01*
%TO.N,/PCC_DATA3*%
X85046000Y-63988901D02*
X85045999Y-63988900D01*
X85046000Y-63989600D02*
X85046000Y-63988901D01*
%TO.N,/PCC_DATA2*%
X89182200Y-63598200D02*
X88677200Y-64103200D01*
X87474166Y-64103200D02*
X87423389Y-64153977D01*
X88677200Y-64103200D02*
X87474166Y-64103200D01*
%TO.N,/PCC_DATA5*%
X86492802Y-64436402D02*
X86046000Y-63989600D01*
X88889990Y-64306410D02*
X87687494Y-64306410D01*
X89153600Y-64042800D02*
X88889990Y-64306410D01*
X87687494Y-64306410D02*
X87557502Y-64436402D01*
X87557502Y-64436402D02*
X86492802Y-64436402D01*
%TO.N,/PCC_DATA4*%
X85560200Y-63989600D02*
X85546000Y-63989600D01*
X85724600Y-64141300D02*
X85560200Y-63989600D01*
%TO.N,/PCC_DATA7*%
X84187960Y-64989600D02*
X84175200Y-65002360D01*
X85021509Y-64965109D02*
X85046000Y-64989600D01*
X85046000Y-64989600D02*
X84187960Y-64989600D01*
%TO.N,/PCC_DATA6*%
X89982200Y-63598200D02*
X89982200Y-64200000D01*
X87332788Y-64639612D02*
X87056400Y-64916000D01*
X85046000Y-64489600D02*
X85046000Y-64491400D01*
X85046000Y-64491400D02*
X85048960Y-64494360D01*
X89542588Y-64639612D02*
X87332788Y-64639612D01*
X89982200Y-64200000D02*
X89542588Y-64639612D01*
%TO.N,/I2C_BB_SDA*%
X92381000Y-62695000D02*
X92381000Y-62595000D01*
%TO.N,/I2C_BB_SCL*%
X92394800Y-61325000D02*
X92402600Y-61317200D01*
X92381000Y-61325000D02*
X92394800Y-61325000D01*
D44*
%TO.N,/I_LED*%
X103800000Y-64850000D02*
X103800000Y-65310000D01*
X103800000Y-65310000D02*
X103900000Y-65410000D01*
D42*
%TO.N,/UART_RX*%
X89582200Y-63598200D02*
X89582200Y-63979335D01*
X89582200Y-63979335D02*
X89547946Y-64013589D01*
%TO.N,/SD_DET*%
X86357398Y-59564600D02*
X86281200Y-59488402D01*
X89582200Y-60798200D02*
X89582200Y-59923400D01*
X89223400Y-59564600D02*
X86357398Y-59564600D01*
X89582200Y-59923400D02*
X89223400Y-59564600D01*
%TO.N,/PUSH_BUT_MCU*%
X91298200Y-64114200D02*
X91298200Y-64288114D01*
X91069102Y-64517212D02*
X91069102Y-64737902D01*
X89280600Y-65899700D02*
X89280600Y-65863790D01*
X89278400Y-65901900D02*
X89280600Y-65899700D01*
X91298200Y-64288114D02*
X91069102Y-64517212D01*
X91069102Y-64737902D02*
X91424700Y-65093500D01*
X90782200Y-63598200D02*
X91298200Y-64114200D01*
D41*
X89280600Y-66171100D02*
X89280600Y-65863790D01*
D44*
%TO.N,/nON*%
X97710000Y-67193210D02*
X97710000Y-60750000D01*
D41*
X91691400Y-67413200D02*
X91953200Y-67675000D01*
X91953200Y-67675000D02*
X92381000Y-67675000D01*
X91142123Y-66037299D02*
X91691400Y-66586576D01*
X90214401Y-66037299D02*
X91142123Y-66037299D01*
D44*
X97228210Y-67675000D02*
X97710000Y-67193210D01*
D41*
X91691400Y-66586576D02*
X91691400Y-67413200D01*
X90080600Y-66171100D02*
X90214401Y-66037299D01*
D44*
X97710000Y-60750000D02*
X97700000Y-60740000D01*
D42*
%TO.N,/LED_STATUS*%
X87302401Y-59793199D02*
X87132600Y-59963000D01*
X87777199Y-59793199D02*
X87302401Y-59793199D01*
X87132600Y-60415000D02*
X86844400Y-60703200D01*
X87132600Y-59963000D02*
X87132600Y-60415000D01*
X86844400Y-60703200D02*
X86636800Y-60703200D01*
X88782200Y-60798200D02*
X87777199Y-59793199D01*
%TO.N,/3V3_EN*%
X90382200Y-63598200D02*
X90917200Y-64133200D01*
X90917200Y-64133200D02*
X90917200Y-64255600D01*
D41*
%TO.N,/nCHRG*%
X88880600Y-68818800D02*
X88872000Y-68810200D01*
D42*
X90907600Y-62798200D02*
X91534084Y-63424684D01*
X90782200Y-62798200D02*
X90907600Y-62798200D01*
D41*
X88880600Y-69071100D02*
X88880600Y-68818800D01*
X88605800Y-69894400D02*
X88880600Y-69619600D01*
X87640600Y-69894400D02*
X88605800Y-69894400D01*
X88880600Y-69619600D02*
X88880600Y-69071100D01*
X87398800Y-69652600D02*
X87640600Y-69894400D01*
X87398800Y-68962600D02*
X87398800Y-69652600D01*
D42*
X91534084Y-63424684D02*
X91692116Y-63424684D01*
%TD*%
%TA.AperFunction,Conductor*%
%TO.N,GND*%
G36*
X97701002Y-59293093D02*
G01*
X97726419Y-59336029D01*
X97754301Y-59476201D01*
X97754302Y-59476205D01*
X97812761Y-59617337D01*
X97897630Y-59744352D01*
X97897632Y-59744354D01*
X97897634Y-59744357D01*
X98005642Y-59852365D01*
X98005645Y-59852367D01*
X98005648Y-59852370D01*
X98132663Y-59937239D01*
X98273795Y-59995698D01*
X98386163Y-60018049D01*
X98423619Y-60025500D01*
X98423620Y-60025500D01*
X98489438Y-60025500D01*
X103591715Y-60025500D01*
X103596715Y-60025500D01*
X103603268Y-60025785D01*
X103762668Y-60039731D01*
X103775569Y-60042006D01*
X103926957Y-60082570D01*
X103939255Y-60087047D01*
X104081290Y-60153279D01*
X104092635Y-60159828D01*
X104187312Y-60226122D01*
X104221009Y-60249717D01*
X104231050Y-60258143D01*
X104341856Y-60368949D01*
X104350282Y-60378990D01*
X104429560Y-60492211D01*
X104440168Y-60507360D01*
X104446722Y-60518712D01*
X104448060Y-60521581D01*
X104505380Y-60644506D01*
X104512948Y-60660734D01*
X104517432Y-60673052D01*
X104557992Y-60824426D01*
X104560268Y-60837335D01*
X104574214Y-60996731D01*
X104574500Y-61003285D01*
X104574500Y-61089724D01*
X104605659Y-61266433D01*
X104667032Y-61435053D01*
X104692071Y-61478421D01*
X104756751Y-61590449D01*
X104786915Y-61626397D01*
X104872091Y-61727908D01*
X104894261Y-61746510D01*
X105009551Y-61843249D01*
X105135091Y-61915730D01*
X105164946Y-61932967D01*
X105164947Y-61932967D01*
X105164950Y-61932969D01*
X105238380Y-61959695D01*
X105333566Y-61994340D01*
X105373469Y-62001376D01*
X105510275Y-62025499D01*
X105510276Y-62025500D01*
X105924800Y-62025500D01*
X105973138Y-62043093D01*
X105998858Y-62087642D01*
X106000000Y-62100700D01*
X106000000Y-66899300D01*
X105982407Y-66947638D01*
X105937858Y-66973358D01*
X105924800Y-66974500D01*
X105510276Y-66974500D01*
X105333566Y-67005659D01*
X105164946Y-67067032D01*
X105047468Y-67134859D01*
X105009551Y-67156751D01*
X105009550Y-67156752D01*
X104872091Y-67272091D01*
X104766031Y-67398491D01*
X104756751Y-67409551D01*
X104755417Y-67411862D01*
X104667032Y-67564946D01*
X104605659Y-67733566D01*
X104574500Y-67910275D01*
X104574500Y-67996714D01*
X104574214Y-68003268D01*
X104560268Y-68162664D01*
X104557992Y-68175573D01*
X104517432Y-68326947D01*
X104512948Y-68339265D01*
X104446722Y-68481287D01*
X104440168Y-68492639D01*
X104350282Y-68621009D01*
X104341856Y-68631050D01*
X104231050Y-68741856D01*
X104221009Y-68750282D01*
X104092639Y-68840168D01*
X104081287Y-68846722D01*
X103939265Y-68912948D01*
X103926947Y-68917432D01*
X103775573Y-68957992D01*
X103762664Y-68960268D01*
X103603269Y-68974214D01*
X103596715Y-68974500D01*
X98423619Y-68974500D01*
X98273798Y-69004301D01*
X98273795Y-69004302D01*
X98132662Y-69062761D01*
X98124222Y-69068401D01*
X98074256Y-69080626D01*
X98028122Y-69057873D01*
X98007406Y-69010789D01*
X98007607Y-68998502D01*
X98012876Y-68944999D01*
X97993415Y-68747400D01*
X97935773Y-68557383D01*
X97869957Y-68434252D01*
X97869956Y-68434251D01*
X97325000Y-68979207D01*
X97325000Y-68902213D01*
X97302851Y-68819555D01*
X97260064Y-68745446D01*
X97199554Y-68684936D01*
X97125445Y-68642149D01*
X97042787Y-68620000D01*
X97025500Y-68620000D01*
X97025500Y-68591438D01*
X97043093Y-68543100D01*
X97047525Y-68538264D01*
X97159275Y-68426513D01*
X97187611Y-68408708D01*
X97329437Y-68359082D01*
X97473400Y-68268624D01*
X97593624Y-68148400D01*
X97684082Y-68004437D01*
X97711499Y-67926082D01*
X102849500Y-67926082D01*
X102849500Y-68073918D01*
X102878342Y-68218913D01*
X102934916Y-68355495D01*
X103017049Y-68478416D01*
X103017051Y-68478418D01*
X103017053Y-68478421D01*
X103121578Y-68582946D01*
X103121581Y-68582948D01*
X103121584Y-68582951D01*
X103244505Y-68665084D01*
X103381087Y-68721658D01*
X103468084Y-68738963D01*
X103526080Y-68750500D01*
X103526082Y-68750500D01*
X103673920Y-68750500D01*
X103722249Y-68740886D01*
X103818913Y-68721658D01*
X103955495Y-68665084D01*
X104078416Y-68582951D01*
X104182951Y-68478416D01*
X104265084Y-68355495D01*
X104321658Y-68218913D01*
X104350500Y-68073918D01*
X104350500Y-67926082D01*
X104321658Y-67781087D01*
X104265084Y-67644505D01*
X104182951Y-67521584D01*
X104182948Y-67521581D01*
X104182946Y-67521578D01*
X104078421Y-67417053D01*
X104078418Y-67417051D01*
X104078416Y-67417049D01*
X103955495Y-67334916D01*
X103945227Y-67330663D01*
X103915489Y-67318345D01*
X103818913Y-67278342D01*
X103818910Y-67278341D01*
X103818909Y-67278341D01*
X103673920Y-67249500D01*
X103673918Y-67249500D01*
X103526082Y-67249500D01*
X103526080Y-67249500D01*
X103381090Y-67278341D01*
X103381087Y-67278342D01*
X103244506Y-67334915D01*
X103121581Y-67417051D01*
X103121578Y-67417053D01*
X103017053Y-67521578D01*
X103017051Y-67521581D01*
X102934915Y-67644506D01*
X102878342Y-67781087D01*
X102878341Y-67781090D01*
X102852644Y-67910275D01*
X102849500Y-67926082D01*
X97711499Y-67926082D01*
X97740237Y-67843954D01*
X97759274Y-67675000D01*
X97759747Y-67670803D01*
X97762048Y-67671062D01*
X97776867Y-67630348D01*
X97781300Y-67625511D01*
X97841865Y-67564946D01*
X97994951Y-67411861D01*
X98041833Y-67330660D01*
X98066100Y-67240091D01*
X98066100Y-67146329D01*
X98066100Y-66849232D01*
X98083693Y-66800894D01*
X98128242Y-66775174D01*
X98166135Y-66778251D01*
X98190579Y-66786805D01*
X98221443Y-66789699D01*
X98221446Y-66789700D01*
X98221452Y-66789700D01*
X98736554Y-66789700D01*
X98736555Y-66789699D01*
X98767421Y-66786805D01*
X98897454Y-66741305D01*
X98938856Y-66710748D01*
X98988190Y-66696201D01*
X99035339Y-66716770D01*
X99047863Y-66732351D01*
X99073101Y-66774100D01*
X99195098Y-66896097D01*
X99342762Y-66985364D01*
X99507485Y-67036693D01*
X99507489Y-67036694D01*
X99579072Y-67043199D01*
X99585000Y-67043198D01*
X99585000Y-66175400D01*
X99602593Y-66127062D01*
X99647142Y-66101342D01*
X99660200Y-66100200D01*
X100017800Y-66100200D01*
X100066138Y-66117793D01*
X100091858Y-66162342D01*
X100093000Y-66175400D01*
X100093000Y-67043199D01*
X100098925Y-67043199D01*
X100098928Y-67043198D01*
X100170509Y-67036694D01*
X100170514Y-67036693D01*
X100335237Y-66985364D01*
X100482901Y-66896097D01*
X100604897Y-66774101D01*
X100694164Y-66626437D01*
X100745493Y-66461714D01*
X100745494Y-66461711D01*
X100752094Y-66389094D01*
X100773990Y-66342548D01*
X100820683Y-66320965D01*
X100826985Y-66320701D01*
X100829538Y-66320701D01*
X100829554Y-66320700D01*
X101952421Y-66320700D01*
X101993736Y-66335737D01*
X101994780Y-66334113D01*
X101999304Y-66337020D01*
X101999305Y-66337021D01*
X102109252Y-66407679D01*
X102234653Y-66444500D01*
X102234656Y-66444500D01*
X102365344Y-66444500D01*
X102365347Y-66444500D01*
X102490748Y-66407679D01*
X102600695Y-66337021D01*
X102686282Y-66238248D01*
X102720947Y-66162342D01*
X102740572Y-66119369D01*
X102740572Y-66119368D01*
X102740574Y-66119364D01*
X102759174Y-65990000D01*
X102740574Y-65860636D01*
X102740572Y-65860631D01*
X102740572Y-65860630D01*
X102686283Y-65741754D01*
X102686279Y-65741747D01*
X102613929Y-65658252D01*
X102600695Y-65642979D01*
X102600693Y-65642978D01*
X102600691Y-65642975D01*
X102583672Y-65632038D01*
X102552519Y-65591105D01*
X102554967Y-65539723D01*
X102562157Y-65527328D01*
X102583362Y-65490600D01*
X102608160Y-65447650D01*
X102630696Y-65363542D01*
X102630696Y-65276467D01*
X102630696Y-65110441D01*
X102648289Y-65062103D01*
X102649062Y-65061197D01*
X102649064Y-65061195D01*
X102663468Y-65044571D01*
X102708416Y-65019562D01*
X102758927Y-65029296D01*
X102791363Y-65069220D01*
X102795500Y-65093809D01*
X102795500Y-65100063D01*
X102795501Y-65100068D01*
X102798852Y-65116914D01*
X102810266Y-65174301D01*
X102866516Y-65258484D01*
X102950699Y-65314734D01*
X103024933Y-65329500D01*
X103365626Y-65329499D01*
X103413963Y-65347092D01*
X103439684Y-65391640D01*
X103440826Y-65404699D01*
X103440826Y-65409997D01*
X103440826Y-65410000D01*
X103459426Y-65539364D01*
X103459426Y-65539365D01*
X103459427Y-65539367D01*
X103459427Y-65539369D01*
X103513716Y-65658245D01*
X103513720Y-65658252D01*
X103564599Y-65716968D01*
X103599305Y-65757021D01*
X103709252Y-65827679D01*
X103834653Y-65864500D01*
X103834656Y-65864500D01*
X103965344Y-65864500D01*
X103965347Y-65864500D01*
X104090748Y-65827679D01*
X104200695Y-65757021D01*
X104286282Y-65658248D01*
X104340574Y-65539364D01*
X104359174Y-65410000D01*
X104359173Y-65409997D01*
X104359174Y-65409996D01*
X104359174Y-65404699D01*
X104376767Y-65356361D01*
X104421316Y-65330641D01*
X104434374Y-65329499D01*
X104575068Y-65329499D01*
X104575068Y-65329498D01*
X104649301Y-65314734D01*
X104733484Y-65258484D01*
X104789734Y-65174301D01*
X104804500Y-65100067D01*
X104804499Y-64856694D01*
X104822092Y-64808359D01*
X104834634Y-64796495D01*
X104912900Y-64737906D01*
X104912904Y-64737903D01*
X105000443Y-64620965D01*
X105000444Y-64620963D01*
X105051494Y-64484095D01*
X105051495Y-64484092D01*
X105057999Y-64423593D01*
X105058000Y-64423582D01*
X105058000Y-64375000D01*
X104605097Y-64375000D01*
X104590426Y-64373555D01*
X104575068Y-64370500D01*
X103024933Y-64370500D01*
X103011388Y-64373195D01*
X103009578Y-64373555D01*
X102994909Y-64375000D01*
X102548114Y-64375000D01*
X102507459Y-64363063D01*
X102490742Y-64352320D01*
X102365345Y-64315500D01*
X102365343Y-64315500D01*
X102234649Y-64315500D01*
X102234646Y-64315500D01*
X102109251Y-64352319D01*
X101999302Y-64422978D01*
X101999301Y-64422978D01*
X101999301Y-64422979D01*
X101998769Y-64423593D01*
X101913716Y-64521747D01*
X101913712Y-64521754D01*
X101859423Y-64640630D01*
X101859423Y-64640632D01*
X101859422Y-64640634D01*
X101859422Y-64640636D01*
X101840822Y-64770000D01*
X101859422Y-64899364D01*
X101859422Y-64899365D01*
X101859423Y-64899367D01*
X101859423Y-64899369D01*
X101913712Y-65018245D01*
X101913716Y-65018251D01*
X101950928Y-65061195D01*
X101969287Y-65109247D01*
X101969296Y-65110441D01*
X101969296Y-65151874D01*
X101951703Y-65200212D01*
X101947271Y-65205048D01*
X101805046Y-65347274D01*
X101758425Y-65369014D01*
X101751871Y-65369300D01*
X101638548Y-65369300D01*
X101590210Y-65351707D01*
X101564490Y-65307158D01*
X101564113Y-65304802D01*
X101560039Y-65276467D01*
X101550574Y-65210636D01*
X101526521Y-65157968D01*
X101520369Y-65116914D01*
X101533400Y-65017937D01*
X101533400Y-64869400D01*
X100940600Y-64869400D01*
X100892262Y-64851807D01*
X100866542Y-64807258D01*
X100865400Y-64794200D01*
X100865400Y-64624600D01*
X100882993Y-64576262D01*
X100927542Y-64550542D01*
X100940600Y-64549400D01*
X101533400Y-64549400D01*
X101533400Y-64400862D01*
X101518264Y-64285899D01*
X101459015Y-64142860D01*
X101410439Y-64079554D01*
X101394899Y-64033777D01*
X101394899Y-63876406D01*
X102542000Y-63876406D01*
X102542000Y-63925000D01*
X103575000Y-63925000D01*
X104025000Y-63925000D01*
X105058000Y-63925000D01*
X105058000Y-63876418D01*
X105057999Y-63876406D01*
X105051495Y-63815907D01*
X105051494Y-63815904D01*
X105000444Y-63679036D01*
X105000443Y-63679034D01*
X104912903Y-63562096D01*
X104795965Y-63474556D01*
X104795963Y-63474555D01*
X104659095Y-63423505D01*
X104659092Y-63423504D01*
X104598593Y-63417000D01*
X104025000Y-63417000D01*
X104025000Y-63925000D01*
X103575000Y-63925000D01*
X103575000Y-63417000D01*
X103001406Y-63417000D01*
X102940907Y-63423504D01*
X102940904Y-63423505D01*
X102804036Y-63474555D01*
X102804034Y-63474556D01*
X102687096Y-63562096D01*
X102599556Y-63679034D01*
X102599555Y-63679036D01*
X102548505Y-63815904D01*
X102548504Y-63815907D01*
X102542000Y-63876406D01*
X101394899Y-63876406D01*
X101394899Y-62640000D01*
X101890826Y-62640000D01*
X101909426Y-62769364D01*
X101909426Y-62769365D01*
X101909427Y-62769367D01*
X101909427Y-62769369D01*
X101963716Y-62888245D01*
X101963720Y-62888252D01*
X102014599Y-62946968D01*
X102049305Y-62987021D01*
X102159252Y-63057679D01*
X102284653Y-63094500D01*
X102284656Y-63094500D01*
X102415344Y-63094500D01*
X102415347Y-63094500D01*
X102540748Y-63057679D01*
X102650695Y-62987021D01*
X102736282Y-62888248D01*
X102790574Y-62769364D01*
X102809174Y-62640000D01*
X102790574Y-62510636D01*
X102790572Y-62510631D01*
X102790572Y-62510630D01*
X102736283Y-62391754D01*
X102736279Y-62391747D01*
X102690032Y-62338377D01*
X102650695Y-62292979D01*
X102540748Y-62222321D01*
X102540746Y-62222320D01*
X102540744Y-62222319D01*
X102415349Y-62185500D01*
X102415347Y-62185500D01*
X102284653Y-62185500D01*
X102284650Y-62185500D01*
X102159255Y-62222319D01*
X102049306Y-62292978D01*
X101963720Y-62391747D01*
X101963716Y-62391754D01*
X101909427Y-62510630D01*
X101909427Y-62510632D01*
X101909426Y-62510634D01*
X101909426Y-62510636D01*
X101890826Y-62640000D01*
X101394899Y-62640000D01*
X101394899Y-61574334D01*
X101380134Y-61500099D01*
X101323884Y-61415916D01*
X101323882Y-61415915D01*
X101323882Y-61415914D01*
X101313321Y-61408858D01*
X101282903Y-61367375D01*
X101279899Y-61346337D01*
X101279899Y-61238343D01*
X101286694Y-61207107D01*
X101301374Y-61174964D01*
X101319974Y-61045600D01*
X101302789Y-60926080D01*
X102849500Y-60926080D01*
X102849500Y-61073919D01*
X102869599Y-61174963D01*
X102878342Y-61218913D01*
X102934916Y-61355495D01*
X103017049Y-61478416D01*
X103017051Y-61478418D01*
X103017053Y-61478421D01*
X103121578Y-61582946D01*
X103121581Y-61582948D01*
X103121584Y-61582951D01*
X103244505Y-61665084D01*
X103381087Y-61721658D01*
X103468084Y-61738963D01*
X103526080Y-61750500D01*
X103526082Y-61750500D01*
X103673920Y-61750500D01*
X103722249Y-61740886D01*
X103818913Y-61721658D01*
X103955495Y-61665084D01*
X104078416Y-61582951D01*
X104182951Y-61478416D01*
X104265084Y-61355495D01*
X104321658Y-61218913D01*
X104350500Y-61073918D01*
X104350500Y-60926082D01*
X104348541Y-60916236D01*
X104335684Y-60851600D01*
X104321658Y-60781087D01*
X104265084Y-60644505D01*
X104182951Y-60521584D01*
X104182948Y-60521581D01*
X104182946Y-60521578D01*
X104078421Y-60417053D01*
X104078418Y-60417051D01*
X104078416Y-60417049D01*
X103955495Y-60334916D01*
X103818913Y-60278342D01*
X103818910Y-60278341D01*
X103818909Y-60278341D01*
X103673920Y-60249500D01*
X103673918Y-60249500D01*
X103526082Y-60249500D01*
X103526080Y-60249500D01*
X103381090Y-60278341D01*
X103381087Y-60278342D01*
X103244506Y-60334915D01*
X103121581Y-60417051D01*
X103121578Y-60417053D01*
X103017053Y-60521578D01*
X103017051Y-60521581D01*
X102934915Y-60644506D01*
X102878342Y-60781087D01*
X102878341Y-60781090D01*
X102849500Y-60926080D01*
X101302789Y-60926080D01*
X101301374Y-60916236D01*
X101286695Y-60884093D01*
X101279899Y-60852853D01*
X101279899Y-60730209D01*
X101273486Y-60681492D01*
X101273486Y-60681490D01*
X101223633Y-60574579D01*
X101223631Y-60574577D01*
X101223629Y-60574574D01*
X101140225Y-60491170D01*
X101140218Y-60491165D01*
X101033314Y-60441315D01*
X101033309Y-60441313D01*
X100999821Y-60436905D01*
X100984593Y-60434900D01*
X100984590Y-60434900D01*
X100746209Y-60434900D01*
X100697492Y-60441313D01*
X100697486Y-60441315D01*
X100590581Y-60491165D01*
X100585188Y-60494942D01*
X100583276Y-60492211D01*
X100548185Y-60508404D01*
X100501276Y-60496726D01*
X100501075Y-60496597D01*
X100428757Y-60450121D01*
X100428756Y-60450120D01*
X100428755Y-60450120D01*
X100303358Y-60413300D01*
X100303356Y-60413300D01*
X100172662Y-60413300D01*
X100107027Y-60432571D01*
X100095660Y-60434973D01*
X100080526Y-60436965D01*
X100047492Y-60441313D01*
X100047486Y-60441315D01*
X99940581Y-60491165D01*
X99935188Y-60494942D01*
X99933678Y-60492785D01*
X99896954Y-60509911D01*
X99847267Y-60496597D01*
X99843696Y-60493601D01*
X99840218Y-60491165D01*
X99733314Y-60441315D01*
X99733309Y-60441313D01*
X99699821Y-60436905D01*
X99684593Y-60434900D01*
X99684590Y-60434900D01*
X99446209Y-60434900D01*
X99397492Y-60441313D01*
X99397486Y-60441315D01*
X99290581Y-60491165D01*
X99285188Y-60494942D01*
X99283678Y-60492785D01*
X99246954Y-60509911D01*
X99197267Y-60496597D01*
X99193696Y-60493601D01*
X99190218Y-60491165D01*
X99083314Y-60441315D01*
X99083309Y-60441313D01*
X99049821Y-60436905D01*
X99034593Y-60434900D01*
X99034590Y-60434900D01*
X98866972Y-60434900D01*
X98818634Y-60417307D01*
X98807312Y-60405479D01*
X98764767Y-60350032D01*
X98641939Y-60255784D01*
X98641935Y-60255782D01*
X98498899Y-60196535D01*
X98425400Y-60186858D01*
X98425400Y-60964200D01*
X98407807Y-61012538D01*
X98363258Y-61038258D01*
X98350200Y-61039400D01*
X98180600Y-61039400D01*
X98132262Y-61021807D01*
X98106542Y-60977258D01*
X98105400Y-60964200D01*
X98105400Y-60962743D01*
X98112196Y-60931503D01*
X98133848Y-60884093D01*
X98140574Y-60869364D01*
X98159174Y-60740000D01*
X98140574Y-60610636D01*
X98138202Y-60605443D01*
X98112195Y-60548492D01*
X98105400Y-60517254D01*
X98105400Y-60186858D01*
X98031900Y-60196535D01*
X97888864Y-60255782D01*
X97888858Y-60255786D01*
X97862549Y-60275972D01*
X97813489Y-60291438D01*
X97765966Y-60271751D01*
X97742216Y-60226122D01*
X97742046Y-60207898D01*
X97759274Y-60055000D01*
X97740237Y-59886046D01*
X97684082Y-59725563D01*
X97593624Y-59581600D01*
X97593623Y-59581599D01*
X97593622Y-59581597D01*
X97473402Y-59461377D01*
X97398597Y-59414374D01*
X97367029Y-59373760D01*
X97368952Y-59322356D01*
X97403468Y-59284214D01*
X97438606Y-59275500D01*
X97652664Y-59275500D01*
X97701002Y-59293093D01*
G37*
%TD.AperFunction*%
%TD*%
M02*
