%TF.GenerationSoftware,KiCad,Pcbnew,8.0.7*%
%TF.CreationDate,2025-01-03T20:06:20-08:00*%
%TF.ProjectId,Miniscope-v4-Wire-Free,4d696e69-7363-46f7-9065-2d76342d5769,rev?*%
%TF.SameCoordinates,Original*%
%TF.FileFunction,Copper,L5,Inr*%
%TF.FilePolarity,Positive*%
%FSLAX46Y46*%
G04 Gerber Fmt 4.6, Leading zero omitted, Abs format (unit mm)*
G04 Created by KiCad (PCBNEW 8.0.7) date 2025-01-03 20:06:20*
%MOMM*%
%LPD*%
G01*
G04 APERTURE LIST*
%TA.AperFunction,ComponentPad*%
%ADD10C,1.000000*%
%TD*%
%TA.AperFunction,ViaPad*%
%ADD11C,0.304800*%
%TD*%
%TA.AperFunction,ViaPad*%
%ADD12C,0.254000*%
%TD*%
%TA.AperFunction,ViaPad*%
%ADD13C,0.400000*%
%TD*%
%TA.AperFunction,Conductor*%
%ADD14C,0.152400*%
%TD*%
%TA.AperFunction,Conductor*%
%ADD15C,0.101600*%
%TD*%
%TA.AperFunction,Conductor*%
%ADD16C,0.304800*%
%TD*%
%TA.AperFunction,Conductor*%
%ADD17C,0.254000*%
%TD*%
G04 APERTURE END LIST*
D10*
%TO.N,+3V3*%
%TO.C,J21*%
X97000000Y-60055000D03*
%TD*%
%TO.N,/I2C_BB_SCL*%
%TO.C,J22*%
X97000000Y-61325000D03*
%TD*%
%TO.N,/IR_REC*%
%TO.C,J24*%
X97000000Y-63865000D03*
%TD*%
%TO.N,/I_LED*%
%TO.C,J25*%
X97000000Y-65135000D03*
%TD*%
%TO.N,+1V8*%
%TO.C,J26*%
X97000000Y-66405000D03*
%TD*%
%TO.N,/nON*%
%TO.C,J27*%
X97000000Y-67675000D03*
%TD*%
%TO.N,/I2C_BB_SDA*%
%TO.C,J23*%
X97000000Y-62595000D03*
%TD*%
%TO.N,GND*%
%TO.C,J12*%
X97000000Y-68945000D03*
%TD*%
D11*
%TO.N,Net-(U1-FB1)*%
X87808100Y-66367500D03*
D12*
X90601400Y-66808300D03*
D11*
%TO.N,Net-(U1-FB2)*%
X90857000Y-66367500D03*
%TO.N,Net-(D2-K)*%
X82191800Y-65254200D03*
D12*
X84960400Y-58701000D03*
X84960400Y-58701000D03*
D11*
%TO.N,Net-(U1-SW1)*%
X87945402Y-69462600D03*
D12*
X89280600Y-68903800D03*
D11*
%TO.N,Net-(U1-SW2)*%
X90614100Y-69513400D03*
%TO.N,Net-(U6B-VSW)*%
X91615200Y-61410790D03*
D12*
%TO.N,Net-(Q2-B)*%
X86630160Y-60112368D03*
X85620800Y-58472400D03*
D11*
%TO.N,Net-(U1-PROG)*%
X87449600Y-68480000D03*
D12*
%TO.N,Net-(U1-HPWR)*%
X88491000Y-66473400D03*
X86738400Y-68213300D03*
D11*
%TO.N,GND*%
X81051000Y-68497400D03*
X83349700Y-68357700D03*
X85474133Y-59612893D03*
X81114500Y-65779600D03*
X92060200Y-69335600D03*
D13*
X99140000Y-68270000D03*
X102200000Y-63590000D03*
D11*
X83957611Y-64010396D03*
D13*
X103820000Y-63550000D03*
X100980000Y-68300000D03*
D11*
X83210000Y-61537800D03*
D13*
X102210000Y-61070000D03*
X99819400Y-66125600D03*
D11*
X81571700Y-61131400D03*
X83556203Y-64504598D03*
X86446800Y-64941400D03*
X83932200Y-66033600D03*
D13*
X99370000Y-62120000D03*
X104410000Y-63580000D03*
D11*
X86131000Y-67544900D03*
X82625800Y-69275800D03*
X85032200Y-68810200D03*
X82090200Y-63476200D03*
X91615200Y-69707000D03*
X83946500Y-60170600D03*
X88417000Y-59963000D03*
X83819600Y-69551500D03*
X81889200Y-58464400D03*
X85722400Y-68835600D03*
X81127200Y-62274400D03*
X89318700Y-67316300D03*
X90282200Y-64535000D03*
X82079700Y-63988900D03*
D12*
X89982200Y-62398200D03*
X88782200Y-62398200D03*
X81317700Y-60077300D03*
X89982200Y-62398200D03*
X88782200Y-62398200D03*
X90382200Y-63198200D03*
D11*
%TO.N,/SD_DAT2*%
X79844500Y-60890100D03*
%TO.N,/SD_DAT3*%
X80187400Y-61741000D03*
%TO.N,/SD_DAT0*%
X82067000Y-61017100D03*
%TO.N,/SD_CMD*%
X79971500Y-62769700D03*
D12*
X81305000Y-59569300D03*
D11*
%TO.N,/SD_CLK*%
X81130607Y-61000993D03*
%TO.N,/SD_DAT1*%
X80352500Y-59937600D03*
D12*
X81813000Y-59582000D03*
D11*
%TO.N,/USB_VBUS*%
X86933200Y-66502800D03*
%TO.N,/SWCLK*%
X86154200Y-60123400D03*
D12*
X89982200Y-61998200D03*
D11*
%TO.N,/SWDIO*%
X86116600Y-61029800D03*
D12*
X89582200Y-61998200D03*
D11*
%TO.N,+1V8*%
X91676198Y-62223610D03*
D13*
X100860800Y-61045600D03*
D11*
X81508200Y-68522800D03*
X81114500Y-63447200D03*
X82706100Y-60017900D03*
X91676174Y-59683600D03*
X84465600Y-66006475D03*
X84160800Y-63595200D03*
X88021597Y-68785053D03*
X82143200Y-62210900D03*
X91145275Y-68904400D03*
D13*
X102350000Y-62640000D03*
D11*
X85664425Y-60683005D03*
X87920000Y-65805000D03*
D12*
X86726200Y-61766400D03*
X89182200Y-62798200D03*
X90383800Y-62798200D03*
X86054800Y-66490800D03*
X92330200Y-66405000D03*
X89182200Y-62798200D03*
X86726200Y-61766400D03*
X90730600Y-68021100D03*
X90382200Y-61998200D03*
X89982200Y-62798200D03*
D11*
%TO.N,/SPI1_MOSI*%
X83451300Y-64966800D03*
D12*
X88782200Y-61198200D03*
X88782200Y-61198200D03*
D11*
%TO.N,/SPI1_MISO*%
X83787717Y-65298375D03*
D12*
X88382200Y-61198200D03*
X88382200Y-61198200D03*
%TO.N,/SPI1_SCK*%
X88782200Y-61598200D03*
X85787754Y-65731537D03*
X88782200Y-61598200D03*
X85787754Y-65731537D03*
%TO.N,/SPI1_NSS*%
X87640600Y-61791800D03*
X86052254Y-65490537D03*
X87640600Y-61791800D03*
D11*
%TO.N,/SDMMC1_D0*%
X82884880Y-60430360D03*
D12*
X88382200Y-61598200D03*
D11*
%TO.N,/SDMMC1_D1*%
X83982160Y-61273640D03*
X82675813Y-59581213D03*
%TO.N,/SDMMC1_D3*%
X80365202Y-59074000D03*
X84454600Y-61359968D03*
%TO.N,/SDMMC1_CMD*%
X80377900Y-59505800D03*
D12*
X87982200Y-60798200D03*
%TO.N,/SDMMC1_D2*%
X82309000Y-59073300D03*
X88382200Y-61998200D03*
D11*
%TO.N,/SDMMC1_CK*%
X82346400Y-61461600D03*
D12*
X88382200Y-62398200D03*
D11*
%TO.N,+3V3*%
X83946500Y-60720600D03*
X81216100Y-67684600D03*
D13*
X99133600Y-65490600D03*
D11*
X80035000Y-63950800D03*
X81114500Y-62833200D03*
X91424700Y-64644610D03*
X83792000Y-67802000D03*
X82259295Y-65741708D03*
X83311500Y-60720600D03*
D13*
X98930400Y-61020200D03*
D11*
X83652687Y-65681699D03*
D12*
X81813000Y-60077300D03*
X83946600Y-59416900D03*
X83551200Y-61995000D03*
X92365000Y-60039200D03*
D11*
X83300000Y-69880000D03*
D12*
X83946600Y-59416900D03*
X89901200Y-65144600D03*
X83551200Y-61995000D03*
X92365000Y-60039200D03*
X81813000Y-60077300D03*
D13*
%TO.N,/EWL_1*%
X102300000Y-65990000D03*
%TO.N,/EWL_2*%
X102299996Y-64770000D03*
D11*
%TO.N,/LED_PWM*%
X91245317Y-60771100D03*
%TO.N,VDC*%
X89307600Y-69800400D03*
X82625800Y-69830900D03*
X87043200Y-67349700D03*
%TO.N,/ENT*%
X90290855Y-60437692D03*
D12*
X90380880Y-61198200D03*
D11*
%TO.N,/VDD_PIX*%
X85546000Y-64489600D03*
X83627400Y-63519002D03*
D12*
X85546800Y-62490300D03*
X86046000Y-66989600D03*
D11*
%TO.N,/VDDA*%
X89129800Y-60025800D03*
%TO.N,/RESET_N*%
X84480000Y-65346075D03*
X86614267Y-63531700D03*
%TO.N,/TRIGGER0*%
X84165513Y-65676275D03*
X87550000Y-63250000D03*
%TO.N,/MONITOR0*%
X83330000Y-67690000D03*
D12*
X87475000Y-60072600D03*
X87475000Y-60072600D03*
D11*
%TO.N,/BAT+*%
X86125873Y-69346527D03*
D13*
%TO.N,/IR_REC*%
X101110000Y-65340000D03*
D11*
%TO.N,/XIN32*%
X91628400Y-60466300D03*
%TO.N,/XOUT32*%
X90167400Y-59640800D03*
%TO.N,/VDDCORE*%
X91589800Y-62993600D03*
%TO.N,/nRESET*%
X87437400Y-66084400D03*
D12*
X90382200Y-62398200D03*
D11*
%TO.N,/CLK1_OUT*%
X84150000Y-63150000D03*
X87058100Y-63224392D03*
D12*
%TO.N,/PCC_DEN2*%
X88382200Y-63198200D03*
X85546800Y-64992200D03*
%TO.N,/PCC_DATA0*%
X88382200Y-63598200D03*
X86471360Y-63041480D03*
%TO.N,/PCC_DEN1*%
X88782200Y-63198200D03*
X86046000Y-64989600D03*
%TO.N,/PCC_DATA1*%
X87250000Y-63836500D03*
X85046000Y-63489600D03*
%TO.N,/PCC_DATA3*%
X85045999Y-63988900D03*
X89182200Y-63198200D03*
%TO.N,/PCC_DATA2*%
X87423389Y-64153977D03*
X85546800Y-63493600D03*
%TO.N,/PCC_DATA5*%
X89153600Y-64042800D03*
X89582200Y-62798200D03*
X89153600Y-64042800D03*
X89582200Y-62798200D03*
%TO.N,/PCC_DATA4*%
X89582200Y-63198200D03*
X85724600Y-64141300D03*
D11*
%TO.N,/ADC0*%
X90536200Y-68776800D03*
D12*
X89982200Y-61198200D03*
D11*
%TO.N,/PCC_DATA7*%
X84175200Y-65002360D03*
D12*
X87462800Y-64921080D03*
X89982200Y-63198200D03*
%TO.N,/PCC_DATA6*%
X85048960Y-64494360D03*
X87056400Y-64916000D03*
X87056400Y-64916000D03*
X85048960Y-64494360D03*
D13*
%TO.N,/I2C_BB_SDA*%
X100238009Y-60867800D03*
D12*
X90782200Y-61198200D03*
X92381000Y-62595000D03*
D13*
%TO.N,/I2C_BB_SCL*%
X99565419Y-61285419D03*
D12*
X92402600Y-61317200D03*
X90782200Y-60798200D03*
D13*
%TO.N,/I_LED*%
X103900000Y-65410000D03*
D11*
X92123196Y-65025600D03*
%TO.N,/UART_RX*%
X91704600Y-68319600D03*
D12*
X89557454Y-64106237D03*
X89547946Y-64013589D03*
D11*
%TO.N,/UART_TX*%
X91441871Y-67629458D03*
D12*
X89582200Y-62398200D03*
X89582200Y-62398200D03*
D11*
%TO.N,/SD_DET*%
X86281200Y-59488402D03*
D12*
%TO.N,/PUSH_BUT_MCU*%
X89280600Y-65863790D03*
X91424700Y-65093500D03*
D13*
%TO.N,/nON*%
X97700000Y-60740000D03*
D12*
%TO.N,/3V3_EN*%
X90730600Y-67621100D03*
X90917200Y-64255600D03*
D11*
%TO.N,/nCHRG*%
X88872000Y-68810200D03*
X87398800Y-68962600D03*
D12*
X91692116Y-63424684D03*
%TD*%
D14*
%TO.N,Net-(U1-FB1)*%
X90601400Y-66808300D02*
X90601400Y-66782900D01*
X88007000Y-66168600D02*
X87808100Y-66367500D01*
X90601400Y-66782900D02*
X89987100Y-66168600D01*
X89987100Y-66168600D02*
X88007000Y-66168600D01*
%TO.N,Net-(U1-SW1)*%
X89280600Y-68903800D02*
X88721800Y-69462600D01*
X88721800Y-69462600D02*
X87945402Y-69462600D01*
D15*
%TO.N,Net-(Q2-B)*%
X86160291Y-59818599D02*
X86336391Y-59818599D01*
X85620800Y-58472400D02*
X85620800Y-59279108D01*
X86336391Y-59818599D02*
X86630160Y-60112368D01*
X85620800Y-59279108D02*
X86160291Y-59818599D01*
D14*
%TO.N,Net-(U1-HPWR)*%
X86743100Y-68218000D02*
X86738400Y-68213300D01*
X87031000Y-68218000D02*
X86743100Y-68218000D01*
X88491000Y-66473400D02*
X88491000Y-66758000D01*
X88491000Y-66758000D02*
X87031000Y-68218000D01*
%TO.N,GND*%
X90382200Y-63198200D02*
X90382200Y-64435000D01*
X81317700Y-60077300D02*
X81571700Y-60331300D01*
X81571700Y-60331300D02*
X81571700Y-61131400D01*
X90382200Y-64435000D02*
X90282200Y-64535000D01*
%TO.N,/SD_CMD*%
X79971500Y-62755300D02*
X79971500Y-62769700D01*
X80708100Y-62018700D02*
X79971500Y-62755300D01*
X81305000Y-59569300D02*
X80708100Y-60166200D01*
X80708100Y-60166200D02*
X80708100Y-62018700D01*
%TO.N,/SD_DAT1*%
X80485594Y-59937600D02*
X80352500Y-59937600D01*
X81495499Y-59264499D02*
X81158695Y-59264499D01*
X81158695Y-59264499D02*
X80485594Y-59937600D01*
X81813000Y-59582000D02*
X81495499Y-59264499D01*
D15*
%TO.N,/SWCLK*%
X87767600Y-60267800D02*
X87615200Y-60420200D01*
X86451000Y-60420200D02*
X86154200Y-60123400D01*
X87615200Y-60420200D02*
X86451000Y-60420200D01*
X89982200Y-61998200D02*
X89982200Y-61644200D01*
X89982200Y-61644200D02*
X88605800Y-60267800D01*
X88605800Y-60267800D02*
X87767600Y-60267800D01*
%TO.N,/SWDIO*%
X89582200Y-61554143D02*
X88524457Y-60496400D01*
X89582200Y-61998200D02*
X89582200Y-61554143D01*
X87843800Y-60496400D02*
X87640600Y-60699600D01*
X88524457Y-60496400D02*
X87843800Y-60496400D01*
X87640600Y-60699600D02*
X86472200Y-60699600D01*
X86142000Y-61029800D02*
X86116600Y-61029800D01*
X86472200Y-60699600D02*
X86142000Y-61029800D01*
D16*
%TO.N,+1V8*%
X102350000Y-62534800D02*
X102350000Y-62640000D01*
X100860800Y-61045600D02*
X102350000Y-62534800D01*
D14*
X90843512Y-62223610D02*
X91676198Y-62223610D01*
D16*
X97795000Y-67200000D02*
X97279010Y-66684010D01*
X103120000Y-66100000D02*
X102020000Y-67200000D01*
D14*
X86054800Y-66490800D02*
X84949925Y-66490800D01*
D16*
X102350000Y-62640000D02*
X103120000Y-63410000D01*
D14*
X90618102Y-61998200D02*
X90843512Y-62223610D01*
X92330200Y-66405000D02*
X92330200Y-68182698D01*
D16*
X103120000Y-63410000D02*
X103120000Y-66100000D01*
D14*
X88785550Y-68021100D02*
X88021597Y-68785053D01*
X92330200Y-68182698D02*
X91608498Y-68904400D01*
X84949925Y-66490800D02*
X84465600Y-66006475D01*
X90383800Y-62798200D02*
X89982200Y-62798200D01*
X90382200Y-61998200D02*
X90618102Y-61998200D01*
D16*
X102020000Y-67200000D02*
X97795000Y-67200000D01*
D14*
X91608498Y-68904400D02*
X91145275Y-68904400D01*
X90730600Y-68021100D02*
X88785550Y-68021100D01*
D16*
X97279010Y-66684010D02*
X97279010Y-66405000D01*
D15*
%TO.N,/SDMMC1_D0*%
X88042400Y-61258400D02*
X86751600Y-61258400D01*
X88382200Y-61598200D02*
X88042400Y-61258400D01*
X82884880Y-60757646D02*
X82884880Y-60430360D01*
X83792012Y-61664778D02*
X82884880Y-60757646D01*
X86345222Y-61664778D02*
X83792012Y-61664778D01*
X86751600Y-61258400D02*
X86345222Y-61664778D01*
X88382200Y-61598200D02*
X88377578Y-61593578D01*
%TO.N,/SDMMC1_CMD*%
X84897400Y-60521800D02*
X85761000Y-61385400D01*
X84897400Y-59556600D02*
X84897400Y-60521800D01*
X86700800Y-60979000D02*
X87801400Y-60979000D01*
X86294400Y-61385400D02*
X86700800Y-60979000D01*
X85761000Y-61385400D02*
X86294400Y-61385400D01*
X87801400Y-60979000D02*
X87982200Y-60798200D01*
X80377900Y-59505800D02*
X81089801Y-58793899D01*
X81089801Y-58793899D02*
X84134699Y-58793899D01*
X84134699Y-58793899D02*
X84897400Y-59556600D01*
%TO.N,/SDMMC1_D2*%
X86545839Y-62106739D02*
X88273661Y-62106739D01*
X82778200Y-61806200D02*
X83297200Y-62325200D01*
X82309000Y-60702840D02*
X82778200Y-61172040D01*
X82309000Y-59073300D02*
X82309000Y-60702840D01*
X88273661Y-62106739D02*
X88382200Y-61998200D01*
X83297200Y-62325200D02*
X83678200Y-62325200D01*
X82778200Y-61172040D02*
X82778200Y-61806200D01*
X86307089Y-61867989D02*
X86545839Y-62106739D01*
X83678200Y-62325200D02*
X84135411Y-61867989D01*
X84135411Y-61867989D02*
X86307089Y-61867989D01*
%TO.N,/SDMMC1_CK*%
X86167400Y-62071200D02*
X86406150Y-62309950D01*
X84287800Y-62071200D02*
X86167400Y-62071200D01*
X83779800Y-62579200D02*
X84287800Y-62071200D01*
X86406150Y-62309950D02*
X88181332Y-62309950D01*
X88269582Y-62398200D02*
X88382200Y-62398200D01*
X82346400Y-61780800D02*
X83144800Y-62579200D01*
X83144800Y-62579200D02*
X83779800Y-62579200D01*
X82346400Y-61461600D02*
X82346400Y-61780800D01*
X88181332Y-62309950D02*
X88269582Y-62398200D01*
D14*
%TO.N,+3V3*%
X97902200Y-60344000D02*
X97289000Y-60344000D01*
X91366390Y-64644610D02*
X91424700Y-64644610D01*
X83525800Y-59837700D02*
X83946600Y-59416900D01*
X83946500Y-60720600D02*
X83525800Y-60299900D01*
X98930400Y-61020200D02*
X98578400Y-61020200D01*
X89901200Y-65144600D02*
X90866400Y-65144600D01*
X90866400Y-65144600D02*
X91366390Y-64644610D01*
X83525800Y-60299900D02*
X83525800Y-59837700D01*
X98578400Y-61020200D02*
X97902200Y-60344000D01*
X97289000Y-60344000D02*
X97202810Y-60257810D01*
X97202810Y-60257810D02*
X97202810Y-60055000D01*
D17*
%TO.N,VDC*%
X87043200Y-67349700D02*
X86382799Y-68010101D01*
X86382799Y-68010101D02*
X86382799Y-68688281D01*
X87546119Y-69851601D02*
X89256399Y-69851601D01*
X84446599Y-68010101D02*
X86382799Y-68010101D01*
X86382799Y-68688281D02*
X87546119Y-69851601D01*
X82625800Y-69830900D02*
X84446599Y-68010101D01*
X89256399Y-69851601D02*
X89307600Y-69800400D01*
D14*
%TO.N,/ENT*%
X90380880Y-61198200D02*
X90380880Y-60527717D01*
X90380880Y-60527717D02*
X90290855Y-60437692D01*
D15*
%TO.N,/VDD_PIX*%
X84249700Y-62490300D02*
X83627400Y-63112600D01*
X85546800Y-62490300D02*
X84249700Y-62490300D01*
D14*
X83872200Y-66989600D02*
X83121099Y-66238499D01*
X83121099Y-66238499D02*
X83121099Y-64025303D01*
D15*
X83627400Y-63112600D02*
X83627400Y-63519002D01*
D14*
X86046000Y-66989600D02*
X83872200Y-66989600D01*
X83121099Y-64025303D02*
X83627400Y-63519002D01*
D15*
%TO.N,/nRESET*%
X91005600Y-63021600D02*
X91005600Y-63760800D01*
X90382200Y-62398200D02*
X91005600Y-63021600D01*
X90536200Y-64839800D02*
X89647200Y-64839800D01*
X91005600Y-63760800D02*
X90794901Y-63971499D01*
X89647200Y-64839800D02*
X89067700Y-65419300D01*
X90637800Y-64738200D02*
X90536200Y-64839800D01*
X87437400Y-65728800D02*
X87437400Y-66084400D01*
X89067700Y-65419300D02*
X87746900Y-65419300D01*
X87746900Y-65419300D02*
X87437400Y-65728800D01*
X90787787Y-63971499D02*
X90637800Y-64121486D01*
X90794901Y-63971499D02*
X90787787Y-63971499D01*
X90637800Y-64121486D02*
X90637800Y-64738200D01*
%TO.N,/PCC_DEN2*%
X86091211Y-63010989D02*
X85075211Y-63010989D01*
X86385829Y-62716371D02*
X86091211Y-63010989D01*
X85075211Y-63010989D02*
X84745000Y-63341200D01*
X88382200Y-63198200D02*
X87900371Y-62716371D01*
X84745000Y-63341200D02*
X84745000Y-64687400D01*
X84745000Y-64687400D02*
X85049800Y-64992200D01*
X85049800Y-64992200D02*
X85546800Y-64992200D01*
X87900371Y-62716371D02*
X86385829Y-62716371D01*
%TO.N,/PCC_DATA0*%
X88382200Y-63598200D02*
X87703582Y-62919582D01*
X87703582Y-62919582D02*
X86593258Y-62919582D01*
X86593258Y-62919582D02*
X86471360Y-63041480D01*
%TO.N,/PCC_DEN1*%
X85710200Y-65322400D02*
X86043000Y-64989600D01*
X85964222Y-62807778D02*
X84948222Y-62807778D01*
X85074780Y-65322400D02*
X85710200Y-65322400D01*
X86043000Y-64989600D02*
X86046000Y-64989600D01*
X88782200Y-63198200D02*
X88097160Y-62513160D01*
X84948222Y-62807778D02*
X84530800Y-63225200D01*
X84530800Y-63225200D02*
X84530800Y-64778420D01*
X84530800Y-64778420D02*
X85074780Y-65322400D01*
X86258840Y-62513160D02*
X85964222Y-62807778D01*
X88097160Y-62513160D02*
X86258840Y-62513160D01*
%TO.N,/PCC_DATA1*%
X86486500Y-63836500D02*
X87250000Y-63836500D01*
X85046000Y-63489600D02*
X85321401Y-63214199D01*
X85321401Y-63214199D02*
X85864199Y-63214199D01*
X85864199Y-63214199D02*
X86486500Y-63836500D01*
%TO.N,/PCC_DATA3*%
X86433387Y-64433387D02*
X87947013Y-64433387D01*
X85823800Y-63823800D02*
X86433387Y-64433387D01*
X85211099Y-63823800D02*
X85823800Y-63823800D01*
X87947013Y-64433387D02*
X89182200Y-63198200D01*
X85045999Y-63988900D02*
X85211099Y-63823800D01*
%TO.N,/PCC_DATA2*%
X85546800Y-63493600D02*
X85793600Y-63493600D01*
X85793600Y-63493600D02*
X86453977Y-64153977D01*
X86453977Y-64153977D02*
X87423389Y-64153977D01*
%TO.N,/PCC_DATA4*%
X86219898Y-64636598D02*
X88143802Y-64636598D01*
X88143802Y-64636598D02*
X89582200Y-63198200D01*
X85724600Y-64141300D02*
X86219898Y-64636598D01*
%TO.N,/ADC0*%
X92034800Y-62987494D02*
X92682000Y-63634694D01*
X92682000Y-63634694D02*
X92682000Y-68231200D01*
X90536200Y-68878400D02*
X90536200Y-68776800D01*
X90661306Y-61614000D02*
X90966116Y-61918810D01*
X92682000Y-68231200D02*
X91653800Y-69259400D01*
X90966116Y-61918810D02*
X91925228Y-61918810D01*
X89982200Y-61198200D02*
X90398000Y-61614000D01*
X92034800Y-62028382D02*
X92034800Y-62987494D01*
X91925228Y-61918810D02*
X92034800Y-62028382D01*
X90398000Y-61614000D02*
X90661306Y-61614000D01*
X91653800Y-69259400D02*
X90917200Y-69259400D01*
X90917200Y-69259400D02*
X90536200Y-68878400D01*
%TO.N,/PCC_DATA7*%
X89982200Y-63198200D02*
X89982200Y-64149200D01*
X89982200Y-64149200D02*
X89210320Y-64921080D01*
X89210320Y-64921080D02*
X87462800Y-64921080D01*
%TO.N,/I2C_BB_SDA*%
X92381000Y-62011000D02*
X92085600Y-61715600D01*
X91299600Y-61715600D02*
X90782200Y-61198200D01*
X92085600Y-61715600D02*
X91299600Y-61715600D01*
X92381000Y-62595000D02*
X92381000Y-62011000D01*
X90857000Y-61198200D02*
X90782200Y-61198200D01*
%TO.N,/I2C_BB_SCL*%
X92161301Y-61075901D02*
X91059901Y-61075901D01*
X92402600Y-61317200D02*
X92161301Y-61075901D01*
X91059901Y-61075901D02*
X90782200Y-60798200D01*
D14*
%TO.N,/PUSH_BUT_MCU*%
X90654410Y-65863790D02*
X91424700Y-65093500D01*
X89280600Y-65863790D02*
X90654410Y-65863790D01*
%TO.N,/3V3_EN*%
X90730600Y-67621100D02*
X91767599Y-66584101D01*
X91767599Y-66584101D02*
X91767599Y-64450501D01*
X91767599Y-64450501D02*
X91572698Y-64255600D01*
X91572698Y-64255600D02*
X90917200Y-64255600D01*
D15*
%TO.N,/nCHRG*%
X92466600Y-64199168D02*
X92466600Y-65500200D01*
X91192222Y-68380872D02*
X89301328Y-68380872D01*
X91692116Y-63424684D02*
X92466600Y-64199168D01*
X89301328Y-68380872D02*
X88872000Y-68810200D01*
X92034800Y-65932000D02*
X92034800Y-67538294D01*
X92466600Y-65500200D02*
X92034800Y-65932000D01*
X92034800Y-67538294D02*
X91192222Y-68380872D01*
%TD*%
%TA.AperFunction,Conductor*%
%TO.N,+3V3*%
G36*
X97701002Y-59293093D02*
G01*
X97726419Y-59336029D01*
X97737422Y-59391343D01*
X97754302Y-59476205D01*
X97812761Y-59617337D01*
X97897630Y-59744352D01*
X97897632Y-59744354D01*
X97897634Y-59744357D01*
X98005642Y-59852365D01*
X98005645Y-59852367D01*
X98005648Y-59852370D01*
X98132663Y-59937239D01*
X98273795Y-59995698D01*
X98386163Y-60018049D01*
X98423619Y-60025500D01*
X98423620Y-60025500D01*
X98489438Y-60025500D01*
X103591715Y-60025500D01*
X103596715Y-60025500D01*
X103603268Y-60025785D01*
X103762668Y-60039731D01*
X103775569Y-60042006D01*
X103926957Y-60082570D01*
X103939255Y-60087047D01*
X104081290Y-60153279D01*
X104092635Y-60159828D01*
X104220699Y-60249500D01*
X104221009Y-60249717D01*
X104231050Y-60258143D01*
X104341856Y-60368949D01*
X104350282Y-60378990D01*
X104429240Y-60491754D01*
X104440168Y-60507360D01*
X104446722Y-60518712D01*
X104448060Y-60521581D01*
X104505380Y-60644506D01*
X104512948Y-60660734D01*
X104517431Y-60673049D01*
X104524272Y-60698579D01*
X104557992Y-60824426D01*
X104560268Y-60837335D01*
X104574214Y-60996731D01*
X104574500Y-61003285D01*
X104574500Y-61089724D01*
X104605659Y-61266433D01*
X104667032Y-61435053D01*
X104692071Y-61478421D01*
X104756751Y-61590449D01*
X104796174Y-61637432D01*
X104872091Y-61727908D01*
X104894261Y-61746510D01*
X105009551Y-61843249D01*
X105135091Y-61915730D01*
X105164946Y-61932967D01*
X105164947Y-61932967D01*
X105164950Y-61932969D01*
X105238380Y-61959695D01*
X105333566Y-61994340D01*
X105373469Y-62001376D01*
X105510275Y-62025499D01*
X105510276Y-62025500D01*
X105924800Y-62025500D01*
X105973138Y-62043093D01*
X105998858Y-62087642D01*
X106000000Y-62100700D01*
X106000000Y-66899300D01*
X105982407Y-66947638D01*
X105937858Y-66973358D01*
X105924800Y-66974500D01*
X105510276Y-66974500D01*
X105333566Y-67005659D01*
X105164946Y-67067032D01*
X105047468Y-67134859D01*
X105009551Y-67156751D01*
X105009550Y-67156752D01*
X104872091Y-67272091D01*
X104756752Y-67409550D01*
X104667032Y-67564946D01*
X104605659Y-67733566D01*
X104574500Y-67910275D01*
X104574500Y-67996714D01*
X104574214Y-68003268D01*
X104560268Y-68162664D01*
X104557992Y-68175573D01*
X104517432Y-68326947D01*
X104512948Y-68339265D01*
X104446722Y-68481287D01*
X104440168Y-68492639D01*
X104350282Y-68621009D01*
X104341856Y-68631050D01*
X104231050Y-68741856D01*
X104221009Y-68750282D01*
X104092639Y-68840168D01*
X104081287Y-68846722D01*
X103939265Y-68912948D01*
X103926947Y-68917432D01*
X103775573Y-68957992D01*
X103762664Y-68960268D01*
X103603269Y-68974214D01*
X103596715Y-68974500D01*
X98423619Y-68974500D01*
X98273798Y-69004301D01*
X98273795Y-69004302D01*
X98132664Y-69062760D01*
X98005645Y-69147632D01*
X98005642Y-69147634D01*
X97897634Y-69255642D01*
X97897632Y-69255645D01*
X97812760Y-69382664D01*
X97754302Y-69523795D01*
X97754301Y-69523798D01*
X97726419Y-69663971D01*
X97699733Y-69707948D01*
X97652664Y-69724500D01*
X97438606Y-69724500D01*
X97390268Y-69706907D01*
X97364548Y-69662358D01*
X97373481Y-69611700D01*
X97398597Y-69585626D01*
X97409952Y-69578490D01*
X97473400Y-69538624D01*
X97593624Y-69418400D01*
X97684082Y-69274437D01*
X97740237Y-69113954D01*
X97759274Y-68945000D01*
X97740237Y-68776046D01*
X97684082Y-68615563D01*
X97663587Y-68582946D01*
X97606844Y-68492639D01*
X97593624Y-68471600D01*
X97593623Y-68471599D01*
X97593622Y-68471597D01*
X97485199Y-68363174D01*
X97463459Y-68316554D01*
X97475933Y-68270000D01*
X98680826Y-68270000D01*
X98699426Y-68399364D01*
X98699426Y-68399365D01*
X98699427Y-68399367D01*
X98699427Y-68399369D01*
X98753716Y-68518245D01*
X98753720Y-68518252D01*
X98804599Y-68576968D01*
X98839305Y-68617021D01*
X98949252Y-68687679D01*
X99074653Y-68724500D01*
X99074656Y-68724500D01*
X99205344Y-68724500D01*
X99205347Y-68724500D01*
X99330748Y-68687679D01*
X99440695Y-68617021D01*
X99526282Y-68518248D01*
X99580574Y-68399364D01*
X99594861Y-68300000D01*
X100520826Y-68300000D01*
X100539426Y-68429364D01*
X100539426Y-68429365D01*
X100539427Y-68429367D01*
X100539427Y-68429369D01*
X100593716Y-68548245D01*
X100593720Y-68548252D01*
X100623788Y-68582951D01*
X100679305Y-68647021D01*
X100789252Y-68717679D01*
X100914653Y-68754500D01*
X100914656Y-68754500D01*
X101045344Y-68754500D01*
X101045347Y-68754500D01*
X101170748Y-68717679D01*
X101280695Y-68647021D01*
X101366282Y-68548248D01*
X101401287Y-68471597D01*
X101420572Y-68429369D01*
X101420572Y-68429368D01*
X101420574Y-68429364D01*
X101439174Y-68300000D01*
X101420574Y-68170636D01*
X101420572Y-68170631D01*
X101420572Y-68170630D01*
X101366283Y-68051754D01*
X101366279Y-68051747D01*
X101314260Y-67991715D01*
X101280695Y-67952979D01*
X101238839Y-67926080D01*
X102849500Y-67926080D01*
X102849500Y-68073919D01*
X102868737Y-68170630D01*
X102878342Y-68218913D01*
X102934916Y-68355495D01*
X103017049Y-68478416D01*
X103017051Y-68478418D01*
X103017053Y-68478421D01*
X103121578Y-68582946D01*
X103121581Y-68582948D01*
X103121584Y-68582951D01*
X103244505Y-68665084D01*
X103381087Y-68721658D01*
X103468084Y-68738963D01*
X103526080Y-68750500D01*
X103526082Y-68750500D01*
X103673920Y-68750500D01*
X103722249Y-68740886D01*
X103818913Y-68721658D01*
X103955495Y-68665084D01*
X104078416Y-68582951D01*
X104182951Y-68478416D01*
X104265084Y-68355495D01*
X104321658Y-68218913D01*
X104350500Y-68073918D01*
X104350500Y-67926082D01*
X104321658Y-67781087D01*
X104265084Y-67644505D01*
X104182951Y-67521584D01*
X104182948Y-67521581D01*
X104182946Y-67521578D01*
X104078421Y-67417053D01*
X104078418Y-67417051D01*
X104078416Y-67417049D01*
X103955495Y-67334916D01*
X103818913Y-67278342D01*
X103818910Y-67278341D01*
X103818909Y-67278341D01*
X103673920Y-67249500D01*
X103673918Y-67249500D01*
X103526082Y-67249500D01*
X103526080Y-67249500D01*
X103381090Y-67278341D01*
X103381087Y-67278342D01*
X103244506Y-67334915D01*
X103121581Y-67417051D01*
X103121578Y-67417053D01*
X103017053Y-67521578D01*
X103017051Y-67521581D01*
X102934915Y-67644506D01*
X102878342Y-67781087D01*
X102878341Y-67781090D01*
X102849500Y-67926080D01*
X101238839Y-67926080D01*
X101170748Y-67882321D01*
X101170746Y-67882320D01*
X101170744Y-67882319D01*
X101045349Y-67845500D01*
X101045347Y-67845500D01*
X100914653Y-67845500D01*
X100914650Y-67845500D01*
X100789255Y-67882319D01*
X100679306Y-67952978D01*
X100593720Y-68051747D01*
X100593716Y-68051754D01*
X100539427Y-68170630D01*
X100539427Y-68170632D01*
X100539426Y-68170634D01*
X100539426Y-68170636D01*
X100520826Y-68300000D01*
X99594861Y-68300000D01*
X99599174Y-68270000D01*
X99580574Y-68140636D01*
X99580572Y-68140631D01*
X99580572Y-68140630D01*
X99526283Y-68021754D01*
X99526279Y-68021747D01*
X99466689Y-67952978D01*
X99440695Y-67922979D01*
X99330748Y-67852321D01*
X99330746Y-67852320D01*
X99330744Y-67852319D01*
X99205349Y-67815500D01*
X99205347Y-67815500D01*
X99074653Y-67815500D01*
X99074650Y-67815500D01*
X98949255Y-67852319D01*
X98839306Y-67922978D01*
X98753720Y-68021747D01*
X98753716Y-68021754D01*
X98699427Y-68140630D01*
X98699427Y-68140632D01*
X98699426Y-68140634D01*
X98699426Y-68140636D01*
X98680826Y-68270000D01*
X97475933Y-68270000D01*
X97476773Y-68266867D01*
X97485199Y-68256826D01*
X97593622Y-68148402D01*
X97593624Y-68148400D01*
X97684082Y-68004437D01*
X97740237Y-67843954D01*
X97759274Y-67675000D01*
X97759423Y-67673680D01*
X97782318Y-67627616D01*
X97829466Y-67607046D01*
X97834150Y-67606900D01*
X102073568Y-67606900D01*
X102073570Y-67606900D01*
X102177058Y-67579170D01*
X102269843Y-67525601D01*
X103445601Y-66349843D01*
X103499170Y-66257058D01*
X103526900Y-66153570D01*
X103526900Y-66046430D01*
X103526900Y-65848207D01*
X103544493Y-65799869D01*
X103589042Y-65774149D01*
X103639700Y-65783082D01*
X103642755Y-65784944D01*
X103709252Y-65827679D01*
X103834653Y-65864500D01*
X103834656Y-65864500D01*
X103965344Y-65864500D01*
X103965347Y-65864500D01*
X104090748Y-65827679D01*
X104200695Y-65757021D01*
X104286282Y-65658248D01*
X104340574Y-65539364D01*
X104359174Y-65410000D01*
X104340574Y-65280636D01*
X104340572Y-65280631D01*
X104340572Y-65280630D01*
X104286283Y-65161754D01*
X104286279Y-65161747D01*
X104239623Y-65107904D01*
X104200695Y-65062979D01*
X104090748Y-64992321D01*
X104090746Y-64992320D01*
X104090744Y-64992319D01*
X103965349Y-64955500D01*
X103965347Y-64955500D01*
X103834653Y-64955500D01*
X103834650Y-64955500D01*
X103709253Y-64992320D01*
X103642755Y-65035055D01*
X103592579Y-65046387D01*
X103546858Y-65022815D01*
X103526985Y-64975369D01*
X103526900Y-64971792D01*
X103526900Y-64037950D01*
X103544493Y-63989612D01*
X103589042Y-63963892D01*
X103623466Y-63968292D01*
X103624091Y-63966164D01*
X103703949Y-63989612D01*
X103754653Y-64004500D01*
X103754656Y-64004500D01*
X103885344Y-64004500D01*
X103885347Y-64004500D01*
X103958622Y-63982984D01*
X104010749Y-63967679D01*
X104051002Y-63941809D01*
X104101177Y-63930475D01*
X104132313Y-63941807D01*
X104219252Y-63997679D01*
X104344653Y-64034500D01*
X104344656Y-64034500D01*
X104475344Y-64034500D01*
X104475347Y-64034500D01*
X104600748Y-63997679D01*
X104710695Y-63927021D01*
X104787620Y-63838245D01*
X104796279Y-63828252D01*
X104796279Y-63828250D01*
X104796282Y-63828248D01*
X104850574Y-63709364D01*
X104869174Y-63580000D01*
X104850574Y-63450636D01*
X104850572Y-63450631D01*
X104850572Y-63450630D01*
X104796283Y-63331754D01*
X104796279Y-63331747D01*
X104743966Y-63271376D01*
X104710695Y-63232979D01*
X104600748Y-63162321D01*
X104600746Y-63162320D01*
X104600744Y-63162319D01*
X104475349Y-63125500D01*
X104475347Y-63125500D01*
X104344653Y-63125500D01*
X104344650Y-63125500D01*
X104219254Y-63162319D01*
X104178994Y-63188192D01*
X104128818Y-63199523D01*
X104097685Y-63188191D01*
X104057426Y-63162319D01*
X104010748Y-63132321D01*
X103987518Y-63125500D01*
X103885349Y-63095500D01*
X103885347Y-63095500D01*
X103754653Y-63095500D01*
X103754650Y-63095500D01*
X103629253Y-63132320D01*
X103549925Y-63183300D01*
X103499749Y-63194632D01*
X103454028Y-63171060D01*
X103448780Y-63163930D01*
X103448601Y-63164068D01*
X103445600Y-63160157D01*
X103410943Y-63125500D01*
X103369842Y-63084399D01*
X102795540Y-62510096D01*
X102780310Y-62488161D01*
X102736282Y-62391752D01*
X102736237Y-62391682D01*
X102730021Y-62379798D01*
X102729169Y-62377740D01*
X102699220Y-62325868D01*
X102675601Y-62284957D01*
X102675599Y-62284955D01*
X102675597Y-62284952D01*
X102028076Y-61637432D01*
X102006336Y-61590812D01*
X102019650Y-61541125D01*
X102061787Y-61511620D01*
X102102436Y-61512104D01*
X102144653Y-61524500D01*
X102144656Y-61524500D01*
X102275344Y-61524500D01*
X102275347Y-61524500D01*
X102400748Y-61487679D01*
X102510695Y-61417021D01*
X102583240Y-61333299D01*
X102596279Y-61318252D01*
X102596279Y-61318250D01*
X102596282Y-61318248D01*
X102634017Y-61235619D01*
X102650572Y-61199369D01*
X102650572Y-61199368D01*
X102650574Y-61199364D01*
X102669174Y-61070000D01*
X102650574Y-60940636D01*
X102650572Y-60940631D01*
X102650572Y-60940630D01*
X102643927Y-60926080D01*
X102849500Y-60926080D01*
X102849500Y-61073919D01*
X102866161Y-61157679D01*
X102878342Y-61218913D01*
X102934916Y-61355495D01*
X103017049Y-61478416D01*
X103017051Y-61478418D01*
X103017053Y-61478421D01*
X103121578Y-61582946D01*
X103121581Y-61582948D01*
X103121584Y-61582951D01*
X103244505Y-61665084D01*
X103381087Y-61721658D01*
X103468084Y-61738963D01*
X103526080Y-61750500D01*
X103526082Y-61750500D01*
X103673920Y-61750500D01*
X103727111Y-61739919D01*
X103818913Y-61721658D01*
X103955495Y-61665084D01*
X104078416Y-61582951D01*
X104182951Y-61478416D01*
X104265084Y-61355495D01*
X104321658Y-61218913D01*
X104350500Y-61073918D01*
X104350500Y-60926082D01*
X104348434Y-60915697D01*
X104335302Y-60849678D01*
X104321658Y-60781087D01*
X104265084Y-60644505D01*
X104182951Y-60521584D01*
X104182948Y-60521581D01*
X104182946Y-60521578D01*
X104078421Y-60417053D01*
X104078418Y-60417051D01*
X104078416Y-60417049D01*
X103955495Y-60334916D01*
X103818913Y-60278342D01*
X103818910Y-60278341D01*
X103818909Y-60278341D01*
X103673920Y-60249500D01*
X103673918Y-60249500D01*
X103526082Y-60249500D01*
X103526080Y-60249500D01*
X103381090Y-60278341D01*
X103381087Y-60278342D01*
X103244506Y-60334915D01*
X103121581Y-60417051D01*
X103121578Y-60417053D01*
X103017053Y-60521578D01*
X103017051Y-60521581D01*
X102934915Y-60644506D01*
X102878342Y-60781087D01*
X102878341Y-60781090D01*
X102849500Y-60926080D01*
X102643927Y-60926080D01*
X102596283Y-60821754D01*
X102596279Y-60821747D01*
X102550032Y-60768377D01*
X102510695Y-60722979D01*
X102400748Y-60652321D01*
X102400746Y-60652320D01*
X102400744Y-60652319D01*
X102275349Y-60615500D01*
X102275347Y-60615500D01*
X102144653Y-60615500D01*
X102144650Y-60615500D01*
X102019255Y-60652319D01*
X101909306Y-60722978D01*
X101823720Y-60821747D01*
X101823716Y-60821754D01*
X101769427Y-60940630D01*
X101769427Y-60940632D01*
X101769426Y-60940634D01*
X101769426Y-60940636D01*
X101750826Y-61070000D01*
X101767020Y-61182631D01*
X101767400Y-61185270D01*
X101756864Y-61235619D01*
X101716430Y-61267417D01*
X101665016Y-61265785D01*
X101639791Y-61249147D01*
X101477665Y-61087021D01*
X101306337Y-60915693D01*
X101291110Y-60893761D01*
X101265341Y-60837335D01*
X101247082Y-60797352D01*
X101247080Y-60797350D01*
X101247079Y-60797347D01*
X101191812Y-60733567D01*
X101161495Y-60698579D01*
X101051548Y-60627921D01*
X101051546Y-60627920D01*
X101051544Y-60627919D01*
X100926149Y-60591100D01*
X100926147Y-60591100D01*
X100795453Y-60591100D01*
X100795450Y-60591100D01*
X100685723Y-60623319D01*
X100634387Y-60620056D01*
X100607705Y-60600411D01*
X100594146Y-60584763D01*
X100538704Y-60520779D01*
X100428757Y-60450121D01*
X100428755Y-60450120D01*
X100428753Y-60450119D01*
X100303358Y-60413300D01*
X100303356Y-60413300D01*
X100172662Y-60413300D01*
X100172659Y-60413300D01*
X100047264Y-60450119D01*
X99937315Y-60520778D01*
X99937314Y-60520778D01*
X99937314Y-60520779D01*
X99932681Y-60526124D01*
X99851729Y-60619547D01*
X99851725Y-60619554D01*
X99797436Y-60738430D01*
X99797434Y-60738438D01*
X99790275Y-60788227D01*
X99765981Y-60833569D01*
X99718226Y-60852686D01*
X99694655Y-60849678D01*
X99630768Y-60830919D01*
X99630766Y-60830919D01*
X99500072Y-60830919D01*
X99500069Y-60830919D01*
X99374674Y-60867738D01*
X99264725Y-60938397D01*
X99179139Y-61037166D01*
X99179135Y-61037173D01*
X99124846Y-61156049D01*
X99124846Y-61156051D01*
X99124845Y-61156053D01*
X99124845Y-61156055D01*
X99106245Y-61285419D01*
X99124845Y-61414783D01*
X99124845Y-61414784D01*
X99124846Y-61414786D01*
X99124846Y-61414788D01*
X99179135Y-61533664D01*
X99179142Y-61533675D01*
X99219030Y-61579708D01*
X99237389Y-61627760D01*
X99220564Y-61676371D01*
X99183387Y-61701106D01*
X99179256Y-61702318D01*
X99069306Y-61772978D01*
X98983720Y-61871747D01*
X98983716Y-61871754D01*
X98929427Y-61990630D01*
X98929427Y-61990632D01*
X98929426Y-61990634D01*
X98929426Y-61990636D01*
X98910826Y-62120000D01*
X98929426Y-62249364D01*
X98929426Y-62249365D01*
X98929427Y-62249367D01*
X98929427Y-62249369D01*
X98983716Y-62368245D01*
X98983720Y-62368252D01*
X99033795Y-62426040D01*
X99069305Y-62467021D01*
X99179252Y-62537679D01*
X99304653Y-62574500D01*
X99304656Y-62574500D01*
X99435344Y-62574500D01*
X99435347Y-62574500D01*
X99560748Y-62537679D01*
X99670695Y-62467021D01*
X99756282Y-62368248D01*
X99810574Y-62249364D01*
X99829174Y-62120000D01*
X99810574Y-61990636D01*
X99810572Y-61990631D01*
X99810572Y-61990630D01*
X99756283Y-61871754D01*
X99756276Y-61871743D01*
X99716388Y-61825710D01*
X99698029Y-61777658D01*
X99714854Y-61729047D01*
X99752039Y-61704309D01*
X99756167Y-61703098D01*
X99866114Y-61632440D01*
X99945239Y-61541125D01*
X99951698Y-61533671D01*
X99951698Y-61533669D01*
X99951701Y-61533667D01*
X99996736Y-61435053D01*
X100005991Y-61414788D01*
X100005991Y-61414787D01*
X100005993Y-61414783D01*
X100013152Y-61364989D01*
X100037445Y-61319650D01*
X100085200Y-61300532D01*
X100108770Y-61303539D01*
X100172662Y-61322300D01*
X100172665Y-61322300D01*
X100303353Y-61322300D01*
X100303356Y-61322300D01*
X100413086Y-61290080D01*
X100464421Y-61293343D01*
X100491102Y-61312987D01*
X100560105Y-61392621D01*
X100670052Y-61463279D01*
X100697725Y-61471404D01*
X100698330Y-61471582D01*
X100730318Y-61490562D01*
X101874985Y-62635229D01*
X101896245Y-62677700D01*
X101909425Y-62769361D01*
X101909427Y-62769369D01*
X101963716Y-62888245D01*
X101963720Y-62888252D01*
X102011987Y-62943953D01*
X102049305Y-62987021D01*
X102096127Y-63017111D01*
X102127280Y-63058044D01*
X102124834Y-63109426D01*
X102089932Y-63147214D01*
X102076659Y-63152528D01*
X102009255Y-63172319D01*
X101899306Y-63242978D01*
X101813720Y-63341747D01*
X101813716Y-63341754D01*
X101759427Y-63460630D01*
X101759427Y-63460632D01*
X101759426Y-63460634D01*
X101759426Y-63460636D01*
X101740826Y-63590000D01*
X101759426Y-63719364D01*
X101759426Y-63719365D01*
X101759427Y-63719367D01*
X101759427Y-63719369D01*
X101813716Y-63838245D01*
X101813720Y-63838252D01*
X101861603Y-63893511D01*
X101899305Y-63937021D01*
X102009252Y-64007679D01*
X102134653Y-64044500D01*
X102134656Y-64044500D01*
X102265344Y-64044500D01*
X102265347Y-64044500D01*
X102390748Y-64007679D01*
X102500695Y-63937021D01*
X102581068Y-63844264D01*
X102626018Y-63819256D01*
X102676529Y-63828991D01*
X102708964Y-63868915D01*
X102713100Y-63893511D01*
X102713100Y-64357500D01*
X102695507Y-64405838D01*
X102650958Y-64431558D01*
X102600300Y-64422625D01*
X102597245Y-64420763D01*
X102490742Y-64352320D01*
X102365345Y-64315500D01*
X102365343Y-64315500D01*
X102234649Y-64315500D01*
X102234646Y-64315500D01*
X102109251Y-64352319D01*
X101999302Y-64422978D01*
X101913716Y-64521747D01*
X101913712Y-64521754D01*
X101859423Y-64640630D01*
X101859423Y-64640632D01*
X101859422Y-64640634D01*
X101859422Y-64640636D01*
X101840822Y-64770000D01*
X101859422Y-64899364D01*
X101859422Y-64899365D01*
X101859423Y-64899367D01*
X101859423Y-64899369D01*
X101913712Y-65018245D01*
X101913716Y-65018252D01*
X101964595Y-65076968D01*
X101999301Y-65117021D01*
X102109248Y-65187679D01*
X102234649Y-65224500D01*
X102234652Y-65224500D01*
X102365340Y-65224500D01*
X102365343Y-65224500D01*
X102490744Y-65187679D01*
X102597244Y-65119235D01*
X102647420Y-65107904D01*
X102693142Y-65131476D01*
X102713015Y-65178922D01*
X102713100Y-65182499D01*
X102713100Y-65577498D01*
X102695507Y-65625836D01*
X102650958Y-65651556D01*
X102600300Y-65642623D01*
X102597245Y-65640761D01*
X102515537Y-65588252D01*
X102490748Y-65572321D01*
X102490745Y-65572320D01*
X102365349Y-65535500D01*
X102365347Y-65535500D01*
X102234653Y-65535500D01*
X102234650Y-65535500D01*
X102109255Y-65572319D01*
X101999306Y-65642978D01*
X101913720Y-65741747D01*
X101913716Y-65741754D01*
X101859427Y-65860630D01*
X101859427Y-65860632D01*
X101859426Y-65860634D01*
X101859426Y-65860636D01*
X101840826Y-65990000D01*
X101859426Y-66119364D01*
X101859426Y-66119365D01*
X101859427Y-66119367D01*
X101859427Y-66119369D01*
X101913716Y-66238245D01*
X101913720Y-66238252D01*
X101964599Y-66296968D01*
X101999305Y-66337021D01*
X102108442Y-66407158D01*
X102139593Y-66448091D01*
X102137146Y-66499473D01*
X102120960Y-66523594D01*
X101873482Y-66771074D01*
X101826861Y-66792814D01*
X101820307Y-66793100D01*
X97994692Y-66793100D01*
X97946354Y-66775507D01*
X97941518Y-66771074D01*
X97766265Y-66595821D01*
X97744525Y-66549201D01*
X97744711Y-66534236D01*
X97759274Y-66405000D01*
X97740237Y-66236046D01*
X97701591Y-66125600D01*
X99360226Y-66125600D01*
X99378826Y-66254964D01*
X99378826Y-66254965D01*
X99378827Y-66254967D01*
X99378827Y-66254969D01*
X99433116Y-66373845D01*
X99433120Y-66373852D01*
X99483999Y-66432568D01*
X99518705Y-66472621D01*
X99628652Y-66543279D01*
X99628654Y-66543279D01*
X99628655Y-66543280D01*
X99691352Y-66561689D01*
X99754053Y-66580100D01*
X99754056Y-66580100D01*
X99884744Y-66580100D01*
X99884747Y-66580100D01*
X100010148Y-66543279D01*
X100120095Y-66472621D01*
X100205682Y-66373848D01*
X100236426Y-66306526D01*
X100259972Y-66254969D01*
X100259972Y-66254968D01*
X100259974Y-66254964D01*
X100278574Y-66125600D01*
X100259974Y-65996236D01*
X100259972Y-65996231D01*
X100259972Y-65996230D01*
X100205683Y-65877354D01*
X100205679Y-65877347D01*
X100158737Y-65823174D01*
X100120095Y-65778579D01*
X100010148Y-65707921D01*
X100010146Y-65707920D01*
X100010144Y-65707919D01*
X99884749Y-65671100D01*
X99884747Y-65671100D01*
X99754053Y-65671100D01*
X99754050Y-65671100D01*
X99628655Y-65707919D01*
X99518706Y-65778578D01*
X99433120Y-65877347D01*
X99433116Y-65877354D01*
X99378827Y-65996230D01*
X99378827Y-65996232D01*
X99378826Y-65996234D01*
X99378826Y-65996236D01*
X99360226Y-66125600D01*
X97701591Y-66125600D01*
X97684082Y-66075563D01*
X97593624Y-65931600D01*
X97593623Y-65931599D01*
X97593622Y-65931597D01*
X97485199Y-65823174D01*
X97463459Y-65776554D01*
X97476773Y-65726867D01*
X97485199Y-65716826D01*
X97593622Y-65608402D01*
X97593624Y-65608400D01*
X97684082Y-65464437D01*
X97727624Y-65340000D01*
X100650826Y-65340000D01*
X100669426Y-65469364D01*
X100669426Y-65469365D01*
X100669427Y-65469367D01*
X100669427Y-65469369D01*
X100723716Y-65588245D01*
X100723720Y-65588252D01*
X100774599Y-65646968D01*
X100809305Y-65687021D01*
X100919252Y-65757679D01*
X100919254Y-65757679D01*
X100919255Y-65757680D01*
X100975344Y-65774149D01*
X101044653Y-65794500D01*
X101044656Y-65794500D01*
X101175344Y-65794500D01*
X101175347Y-65794500D01*
X101300748Y-65757679D01*
X101410695Y-65687021D01*
X101496282Y-65588248D01*
X101550574Y-65469364D01*
X101569174Y-65340000D01*
X101550574Y-65210636D01*
X101550572Y-65210631D01*
X101550572Y-65210630D01*
X101496283Y-65091754D01*
X101496279Y-65091747D01*
X101432594Y-65018252D01*
X101410695Y-64992979D01*
X101300748Y-64922321D01*
X101300746Y-64922320D01*
X101300744Y-64922319D01*
X101175349Y-64885500D01*
X101175347Y-64885500D01*
X101044653Y-64885500D01*
X101044650Y-64885500D01*
X100919255Y-64922319D01*
X100809306Y-64992978D01*
X100723720Y-65091747D01*
X100723716Y-65091754D01*
X100669427Y-65210630D01*
X100669427Y-65210632D01*
X100669426Y-65210634D01*
X100669426Y-65210636D01*
X100650826Y-65340000D01*
X97727624Y-65340000D01*
X97740237Y-65303954D01*
X97759274Y-65135000D01*
X97740237Y-64966046D01*
X97684082Y-64805563D01*
X97593624Y-64661600D01*
X97593623Y-64661599D01*
X97593622Y-64661597D01*
X97485199Y-64553174D01*
X97463459Y-64506554D01*
X97476773Y-64456867D01*
X97485199Y-64446826D01*
X97593622Y-64338402D01*
X97593624Y-64338400D01*
X97684082Y-64194437D01*
X97740237Y-64033954D01*
X97759274Y-63865000D01*
X97740237Y-63696046D01*
X97684082Y-63535563D01*
X97636998Y-63460630D01*
X97593622Y-63391597D01*
X97485199Y-63283174D01*
X97463459Y-63236554D01*
X97476773Y-63186867D01*
X97485199Y-63176826D01*
X97593622Y-63068402D01*
X97593624Y-63068400D01*
X97684082Y-62924437D01*
X97740237Y-62763954D01*
X97759274Y-62595000D01*
X97740237Y-62426046D01*
X97684082Y-62265563D01*
X97673905Y-62249367D01*
X97593622Y-62121597D01*
X97485199Y-62013174D01*
X97463459Y-61966554D01*
X97476773Y-61916867D01*
X97485199Y-61906826D01*
X97593622Y-61798402D01*
X97593624Y-61798400D01*
X97684082Y-61654437D01*
X97740237Y-61493954D01*
X97759274Y-61325000D01*
X97752308Y-61263180D01*
X97764378Y-61213178D01*
X97805763Y-61182632D01*
X97890748Y-61157679D01*
X98000695Y-61087021D01*
X98070105Y-61006916D01*
X98086279Y-60988252D01*
X98086279Y-60988250D01*
X98086282Y-60988248D01*
X98119415Y-60915697D01*
X98140572Y-60869369D01*
X98140572Y-60869368D01*
X98140574Y-60869364D01*
X98159174Y-60740000D01*
X98140574Y-60610636D01*
X98140572Y-60610631D01*
X98140572Y-60610630D01*
X98086283Y-60491754D01*
X98086279Y-60491747D01*
X98021553Y-60417051D01*
X98000695Y-60392979D01*
X97890748Y-60322321D01*
X97890746Y-60322320D01*
X97890744Y-60322319D01*
X97765349Y-60285500D01*
X97765347Y-60285500D01*
X97634653Y-60285500D01*
X97634650Y-60285500D01*
X97509255Y-60322319D01*
X97399306Y-60392978D01*
X97313720Y-60491747D01*
X97313718Y-60491751D01*
X97285643Y-60553227D01*
X97249559Y-60589887D01*
X97198352Y-60594777D01*
X97192403Y-60592967D01*
X97168963Y-60584765D01*
X97168956Y-60584763D01*
X97168954Y-60584763D01*
X97144211Y-60581975D01*
X97092279Y-60576123D01*
X97046216Y-60553227D01*
X97025646Y-60506079D01*
X97025500Y-60501396D01*
X97025500Y-59350700D01*
X97043093Y-59302362D01*
X97087642Y-59276642D01*
X97100700Y-59275500D01*
X97652664Y-59275500D01*
X97701002Y-59293093D01*
G37*
%TD.AperFunction*%
%TD*%
M02*
